<svg xmlns:xlink="http://www.w3.org/1999/xlink" width="221" height="111" viewBox="0 0 221 111">
  <defs>
    <polygon id="digitalmediaunicorn-logo-a" points=".5 .188 64.334 .188 64.334 64.023 .5 64.023"/>
    <polygon id="digitalmediaunicorn-logo-c" points=".319 .721 16.948 .721 16.948 73.549 .319 73.549"/>
  </defs>
  <g fill="none" fill-rule="evenodd">
    <path fill="#FEFEFE" d="M71,79.0004118 C71,61.8791832 57.1208168,48 40.0004118,48 C22.8791832,48 9,61.8791832 9,79.0004118 C9,96.1208168 22.8791832,110 40.0004118,110 C57.1208168,110 71,96.1208168 71,79.0004118"/>
    <g transform="translate(7 46)">
      <mask id="digitalmediaunicorn-logo-b" fill="#fff">
        <use xlink:href="#digitalmediaunicorn-logo-a"/>
      </mask>
      <path fill="#383736" d="M32.4173061,2.24038884 C15.9494837,2.24038884 2.55229496,15.6375776 2.55229496,32.1062208 C2.55229496,48.5732225 15.9494837,61.971232 32.4173061,61.971232 C48.8851286,61.971232 62.2823173,48.5732225 62.2823173,32.1062208 C62.2823173,15.6375776 48.8851286,2.24038884 32.4173061,2.24038884 M32.4173061,64.023246 C14.8184136,64.023246 0.500281003,49.7051134 0.500281003,32.1062208 C0.500281003,14.5065075 14.8184136,0.188374882 32.4173061,0.188374882 C50.0161987,0.188374882 64.3343313,14.5065075 64.3343313,32.1062208 C64.3343313,49.7051134 50.0161987,64.023246 32.4173061,64.023246" mask="url(#digitalmediaunicorn-logo-b)"/>
    </g>
    <path fill="#A2D1B9" d="M46.9983697,64.9788458 C46.9983697,64.9665193 47,64.9550146 47,64.9426882 C47,64.9278964 46.9983697,64.9139264 46.9983697,64.8991347 C46.905444,41.4246156 40.0004076,6 40.0004076,6 C40.0004076,6 33.0864047,39.1023097 33.0024454,64.9032435 C33.0024454,64.9172135 33,64.9287182 33,64.9426882 C33,64.9541929 33.0016303,64.9648758 33.0016303,64.9763805 C33.0016303,65.1086846 33,65.2426321 33,65.375758 C33.2233479,69.0704103 36.2793013,72 40.0004076,72 C43.7206987,72 46.7774672,69.0704103 47,65.375758 C47,65.2442757 46.9983697,65.1111498 46.9983697,64.9788458"/>
    <g transform="translate(31)">
      <mask id="digitalmediaunicorn-logo-d" fill="#fff">
        <use xlink:href="#digitalmediaunicorn-logo-c"/>
      </mask>
      <path fill="#383736" d="M2.43210085,65.4044379 L2.43210085,65.4259962 L2.43125558,65.8297994 C2.62735866,68.9690174 5.35251528,71.4764118 8.63301554,71.4764118 C11.9135158,71.4764118 14.6386724,68.9690174 14.8373113,65.7667829 L14.833085,65.3936587 L14.8339302,65.3870254 L14.833085,65.3488838 C14.7603916,47.4538488 10.5762956,22.3367881 8.6042763,11.4722415 C6.60858933,21.9462515 2.49803206,45.8610231 2.43294612,65.3555172 L2.43210085,65.4044379 Z M8.63301554,73.5493239 C4.23760164,73.5493239 0.586027011,70.1862314 0.319766361,65.892816 L0.31892109,65.58105 L0.321456905,65.2916715 C0.405984096,39.5087915 7.52739989,6.03955361 7.599248,5.70457103 L8.66851696,0.721290475 L9.67016417,5.71866683 C9.74116701,6.07686603 16.850749,41.8312821 16.9462647,65.344738 L16.9479553,65.8297994 C16.6800041,70.1862314 13.0284294,73.5493239 8.63301554,73.5493239 Z" mask="url(#digitalmediaunicorn-logo-d)"/>
    </g>
    <polygon fill="#CEE7D3" points="34 63 46 59.935 45.309 50 34.502 53.249"/>
    <polygon fill="#CEE7D3" points="35 43 44 40.851 42.745 31 36.248 32.706"/>
    <path fill="#383736" d="M37.7572287,64 C35.9507428,64 34.1543536,63.5562584 32.5632661,62.716198 C32.0491707,62.4443639 31.8506002,61.8041565 32.1206897,61.2867403 C32.3907791,60.769324 33.0268775,60.5711646 33.5401316,60.841305 C34.8493501,61.5323224 36.2679506,61.8829122 37.7572287,61.8829122 C41.270074,61.8829122 44.5035745,59.8132471 45.9953768,56.6096699 C46.2419071,56.0803979 46.8679087,55.8517524 47.3937838,56.100722 C47.9205002,56.3488446 48.1468368,56.97889 47.9003066,57.5081619 C46.0635302,61.4518731 42.0820251,64 37.7572287,64"/>
    <path fill="#F6A2A4" d="M35,31.8281027 C35.6138067,31.9407989 36.2497041,32 36.9005917,32 C39.2216963,32 41.347929,31.2482168 43,30"/>
    <path fill="#383736" d="M36.8947735 33C36.1859382 33 35.4786852 32.9328892 34.792001 32.7994215 34.2572101 32.696116 33.9114947 32.1984401 34.0198769 31.6879452 34.1282591 31.1774503 34.6496011 30.8471745 35.1859742 30.951988 35.7429162 31.0598178 36.3180537 31.1148638 36.8947735 31.1148638 38.8962837 31.1148638 40.8432074 30.4414931 42.3763801 29.2199249 42.7948777 28.8858787 43.418273 28.9379085 43.7695261 29.3383114 44.1199882 29.7372063 44.0646105 30.3321552 43.6453218 30.6662014 41.7569403 32.1712941 39.3598747 33 36.8947735 33M37.2883889 44C36.064266 44 34.8602245 43.7892235 33.7105699 43.3721361 33.1633544 43.1747565 32.870502 42.5406408 33.0554174 41.9565398 33.2411694 41.373332 33.8352413 41.0589535 34.3816201 41.2581195 35.3154008 41.5957191 36.2926909 41.7671982 37.2883889 41.7671982 39.9332639 41.7671982 42.4375698 40.5364779 44.1595416 38.3903089 44.5352293 37.9223136 45.1970757 37.8669402 45.6346807 38.2688445 46.0731225 38.6689625 46.1241625 39.3736348 45.7484748 39.8425231 43.6282238 42.4843742 40.5449069 44 37.2883889 44M36.8431871 54C35.3716652 54 33.9459025 53.6819736 32.6060389 53.0546101 32.0970673 52.8165248 31.8626514 52.1769963 32.082617 51.6269671 32.3025826 51.0760689 32.894242 50.822343 33.4024108 51.0604283 34.4893943 51.5696181 35.6470236 51.8276887 36.8431871 51.8276887 39.813526 51.8276887 42.545435 50.2097512 44.1518263 47.5004445 44.4512686 46.9938615 45.0718286 46.8487511 45.5382521 47.171991 46.0046755 47.4960999 46.1403478 48.1677785 45.8409055 48.6726237 43.8636232 52.008425 40.4999151 54 36.8431871 54"/>
    <path fill="#F391B0" d="M34 81C34 77.6868381 31.3138024 75 27.9995874 75 24.6861976 75 22 77.6868381 22 81 22 84.3139871 24.6861976 87 27.9995874 87 31.3138024 87 34 84.3139871 34 81M57 81C57 77.6868381 54.3138024 75 50.9995874 75 47.6861976 75 45 77.6868381 45 81 45 84.3139871 47.6861976 87 50.9995874 87 54.3138024 87 57 84.3139871 57 81"/>
    <path fill="#383736" d="M29.7535885,87 C28.386984,87 27.0178643,86.6963171 25.7661217,86.084945 C22.9893155,84.7267855 21.1632637,82.0329022 21.001451,79.0529641 C20.9712683,78.5016875 21.4156244,78.0297371 21.9932872,78.0016925 C22.5684349,77.9696415 23.0639338,78.3967206 23.0949549,78.9495997 C23.2182008,81.2172052 24.6074423,83.2684668 26.7202296,84.301309 C28.8330169,85.3349525 31.3868066,85.2099538 33.3830552,83.9783956 C33.8693316,83.6779178 34.5182592,83.8117306 34.8318236,84.2756683 C35.1462265,84.7404072 35.0070508,85.3605933 34.5207744,85.6602698 C33.08039,86.549684 31.4186661,87 29.7535885,87"/>
    <path fill="#383736" d="M23.9385354 92C23.799543 92 23.6582967 91.9651896 23.5253149 91.8913236 23.0595026 91.6323681 22.8679186 90.9964413 23.0963168 90.4700399L25.2180164 85.5931859C25.4464147 85.0676336 26.0091459 84.8502808 26.4749582 85.1092363 26.9407704 85.3673428 27.1323545 86.0041186 26.9032049 86.53052L24.7822566 91.4073739C24.618471 91.7817981 24.2848893 92 23.9385354 92M35.0343953 91C34.6611895 91 34.3057554 90.7733188 34.1481281 90.392559L32.0796562 85.4088004C31.8679411 84.8981628 32.0927918 84.303629 32.5819 84.0825947 33.0710083 83.8631738 33.6397028 84.0955018 33.8521906 84.6069461L35.9198898 89.5907047C36.1323776 90.102149 35.9075269 90.6958762 35.4184187 90.9169105 35.2924714 90.9733791 35.1626606 91 35.0343953 91M16.0668172 81C15.5344434 81 15.074705 80.5837352 15.0080514 80.0149596 14.9362707 79.4013278 15.352428 78.8415234 15.9377828 78.7661651L21.8015848 78.0089938C22.3877941 77.9309441 22.9201679 78.369637 22.9919486 78.985063 23.0637293 79.5986947 22.647572 80.1593963 22.0622172 80.2338574L16.1984152 80.9910288C16.1539795 80.9973086 16.1103983 81 16.0668172 81M18.0780481 87C17.7205176 87 17.3707407 86.8286077 17.1656991 86.5164584 16.8486599 86.0320887 17.0002873 85.3937144 17.5034147 85.0890169L22.3494614 82.1596157C22.8517273 81.8540903 23.5168203 82.0006431 23.8347209 82.4841848 24.1508986 82.9685544 24.0001327 83.6069287 23.4961438 83.9116262L18.6509586 86.8410274C18.472624 86.9486651 18.2744746 87 18.0780481 87M30.131207 93C29.676495 93 29.2946759 92.5832879 29.2655188 92.0404978L29.0017164 87.0874363C28.9718651 86.5241791 29.3349404 86.0378785 29.8132557 86.0026749 30.2999016 85.9617405 30.7039357 86.3956451 30.733787 86.959721L30.9982836 91.9127825C31.0281349 92.4760398 30.6650596 92.9623404 30.1867443 92.9975439 30.1680004 92.9991813 30.1492566 93 30.131207 93"/>
    <path fill="#FEFEFE" d="M6.46782986,63.6371716 C11.9314304,68.9574699 17.7410811,67.3892456 22.3179279,62.9324427 C26.8947748,58.4756399 7.10752365,39.2073795 2.53067681,43.6641823 C-0.697738782,46.8079213 1.44760618,58.7494311 6.46782986,63.6371716"/>
    <path fill="#383736" d="M4.4239886,44.0832492 C3.94238767,44.0832492 3.55942789,44.2100883 3.29583219,44.4772065 C2.06737679,45.7220781 1.73166529,49.2357742 2.4611125,53.2207071 C3.24692607,57.508878 5.06971516,61.5265707 7.21909766,63.703836 C13.1383959,69.7039152 18.7377321,65.8206216 21.5477617,62.9730409 C22.2307895,62.2808856 21.9763119,60.6454167 20.8489844,58.4849514 C19.6768954,56.2371267 17.5847082,53.5096652 15.1095612,51.0006022 C10.9707772,46.8073507 6.65211824,44.0832492 4.4239886,44.0832492 M13.8156213,69 C11.0089074,69 8.26353343,67.7324486 5.75357192,65.1889459 C3.28754302,62.6891229 1.29482589,58.3589523 0.423633832,53.6037445 C-0.464136571,48.7519375 0.0613969821,44.7846444 1.83113537,42.9920966 C2.81340234,41.9950234 4.8028038,41.2449085 8.69374149,43.3289343 C11.1224691,44.6292455 13.9208938,46.8266706 16.575087,49.5163323 C21.4607254,54.4672587 26.0786235,61.3518519 23.0132874,64.4581508 C20.0283563,67.4821303 16.8859309,69 13.8156213,69"/>
    <path fill="#D2D2D2" d="M6.43696631,64.5335185 C9.61168505,67.7382799 12.9038634,68.5181776 16,67.6965295 C16,67.6965295 15.3473546,62.1971656 11.0377442,54.5593458 C6.72896103,46.9206909 1.18933326,47.0000167 1.18933326,47.0000167 C0.324102466,51.9950356 2.48469792,60.5438494 6.43696631,64.5335185"/>
    <path fill="#383736" d="M2.09297647,48.1921004 C1.70622798,52.8649763 3.6579968,60.2499005 7.12808116,63.7730676 C9.51494201,66.1964408 12.0583049,67.2280175 14.6934386,66.843672 C14.314884,65.0001447 13.1669293,60.6034651 10.0713026,55.0853619 C7.13463621,49.8492784 3.68503642,48.5265309 2.09297647,48.1921004 M13.6388935,69 C10.8398833,69 8.12690827,67.7288313 5.67941312,65.2438963 C1.46614895,60.9653489 -0.689646077,52.009766 0.196925651,46.8602018 L0.343595096,46.0116468 L1.19165585,46 C1.43009612,46 7.33456551,46.0041596 11.8518205,54.056281 C16.1732432,61.7598293 16.8664407,67.3037219 16.8934803,67.5358267 L17,68.4351286 L16.1371904,68.6655695 C15.300601,68.8885232 14.4656503,69 13.6388935,69"/>
    <path fill="#FEFEFE" d="M73.5321701,64.6375743 C68.0685696,69.9577675 62.2589189,68.3887641 57.6820721,63.9320493 C53.1052252,59.4753344 72.8924764,40.2074543 77.4693232,44.6641692 C80.6977388,47.8078461 78.5523938,59.7491202 73.5321701,64.6375743"/>
    <path fill="#383736" d="M73.5312653,65.4478314 L73.5395629,65.4478314 L73.5312653,65.4478314 Z M75.6081762,45.1028875 C74.7784075,45.1028875 73.6383054,45.4715283 72.2907611,46.1920155 C70.0711299,47.3793917 67.3768711,49.4988666 64.8991819,52.0062961 C62.4214927,54.5137256 60.3271566,57.2403243 59.1538637,59.4865982 C58.0253783,61.6472199 57.7706393,63.2821714 58.4543687,63.9741077 C61.2672845,66.8216273 66.871542,70.7036925 72.7977498,64.7055113 C77.5199632,59.926616 79.3852831,48.1762941 76.7250448,45.4841243 C76.4727951,45.2288468 76.0935909,45.1028875 75.6081762,45.1028875 Z M66.1952805,70 C63.1218174,70 59.9761644,68.4826105 56.9881675,65.4587479 C53.9188532,62.3525919 58.5414944,55.4718559 63.4321509,50.521656 C68.3228074,45.5731355 75.1227615,40.8941679 78.1920758,43.9994841 C81.892844,47.7446736 79.5802788,60.8108502 74.2647807,66.1901515 C71.7522412,68.7320099 69.0040474,70 66.1952805,70 Z"/>
    <path fill="#D2D2D2" d="M72.5630337,64.5335184 C69.388315,67.7382799 66.0961366,68.5181776 63,67.6965295 C63,67.6965295 63.6526454,62.1971655 67.9622558,54.5593454 C72.271039,46.9215254 77.8106667,47.0000162 77.8106667,47.0000162 C78.6758975,51.9950352 76.5153021,60.5438492 72.5630337,64.5335184"/>
    <path fill="#383736" d="M64.3048803 66.8437652C66.9416043 67.2272622 69.4849205 66.1965619 71.8717375 63.7732934 75.3417581 60.2494466 77.2943104 52.8648414 76.9067497 48.1921674 75.3196352 48.5249196 71.8668213 49.8467781 68.9285701 55.0859629 65.8207098 60.6262886 64.6801505 65.0053087 64.3048803 66.8437652M65.3618641 69C64.5343031 69 63.7001872 68.888528 62.8627938 68.6647521L62 68.4343211 62.1065178 67.5358899C62.1343762 67.3037952 62.827561 61.760142 67.1480849 54.0560946 71.6611601 46.011808 77.5458562 45.9960022 77.8080537 46.0001616L78.6569183 46.0126399 78.8027657 46.8611582C79.6901405 52.009668 77.534385 60.9656959 73.3203789 65.2432266 70.8737481 67.7272225 68.1608229 69 65.3618641 69M50.2464115 87C48.5813339 87 46.9204484 86.5504452 45.4792256 85.6609519 44.9929492 85.3612487 44.8537735 84.7410074 45.1681764 84.276227 45.4817408 83.8114467 46.1315068 83.6784234 46.6169448 83.9781265 48.6131934 85.2113971 51.1669831 85.3348043 53.2806088 84.3018701 55.3925577 83.2689359 56.7817992 81.2174917 56.9050451 78.9496843 56.9360662 78.3967559 57.4282115 77.9696388 58.0067128 78.0016927 58.5843756 78.0297398 59.0287317 78.5017322 58.998549 79.0530578 58.8367363 82.0332613 57.0106845 84.7273845 54.2347167 86.0848636 52.9829741 86.6970914 51.613016 87 50.2464115 87"/>
    <path fill="#383736" d="M56.0613524 92C55.714957 92 55.3813355 91.7817981 55.2175303 91.4073739L53.0963283 86.53052C52.8679028 86.0041186 53.0595097 85.3673428 53.5253777 85.1092363 53.9889914 84.8502808 54.5525414 85.0676336 54.7817183 85.5931859L56.9036717 90.4700399C57.1320972 90.9964413 56.9404903 91.6323681 56.4746223 91.8913236 56.3416245 91.9651896 56.2003613 92 56.0613524 92M43.9656047 91C43.8373394 91 43.7075286 90.9733765 43.5815813 90.9169023 43.0924731 90.6958464 42.8676224 90.1020611 43.0801102 89.5905668L45.1478094 84.6063203C45.3602972 84.0948259 45.9289917 83.8640887 46.4181 84.0819175 46.9072082 84.3029735 47.1320589 84.8975655 46.9203438 85.4082531L44.8518719 90.3924996C44.6942446 90.7732967 44.3388105 91 43.9656047 91M63.9331828 81C63.8896017 81 63.8460205 80.9973085 63.8015848 80.9910282L57.9377828 80.2338123C57.352428 80.1593467 56.9362707 79.5986121 57.0080514 78.9849442 57.0806867 78.3694819 57.6164786 77.9316603 58.1984152 78.0088174L64.0622172 78.7660334C64.647572 78.8413961 65.0637293 79.4012335 64.9919486 80.0149015 64.925295 80.5837106 64.4655566 81 63.9331828 81M61.9219519 87C61.7255254 87 61.527376 86.9486651 61.3490414 86.8410274L56.5038562 83.9116262C55.9998673 83.6069287 55.8491014 82.9685544 56.1652791 82.4841848 56.4831797 82.0006431 57.1474112 81.8540903 57.6505386 82.1596157L62.4965853 85.0890169C62.9997127 85.3937144 63.1513401 86.0320887 62.8343009 86.5164584 62.6292593 86.8286077 62.2794824 87 61.9219519 87M48.868793 93C48.8507434 93 48.8319996 92.9991813 48.8132557 92.997544 48.3349404 92.9623414 47.9718651 92.4760547 48.0017164 91.9128135L48.266213 86.9598933C48.2960643 86.3958335 48.7070406 85.960304 49.1867443 86.0028745 49.6650596 86.0380771 50.0281349 86.5243638 49.9982836 87.087605L49.7344812 92.0405252C49.7053241 92.5832998 49.323505 93 48.868793 93M89.5786431 78.5681322C93.7858838 78.5681322 96.0091877 76.3661835 96.0091877 72.5259586 96.0091877 68.6338165 93.7330697 66.4318678 89.5786431 66.4318678 89.0487983 66.4318678 88.4405841 66.483785 87.8851841 66.5604246L87.8851841 78.4395754C88.4405841 78.5170391 89.0487983 78.5681322 89.5786431 78.5681322M89.4466078 81C88.4141771 81 87.1440828 80.8969897 86.3237603 80.6926172 85 80.3596878 85 79.6171894 85 78.7980513L85 66.2019487C85 65.3317175 85 64.6658587 86.3237603 64.3073828 87.0384545 64.1021862 88.4141771 64 89.525829 64 95.61223 64 99 67.0985506 99 72.4484948 99 77.9014494 95.4801947 81 89.4466078 81M103.691124 79.875115C103.691124 80.6165352 103.293491 81 102.499645 81 101.705799 81 101.308876 80.6165352 101.308876 79.875115L101.308876 70.4423738C101.308876 69.7009536 101.705799 69.3174887 102.499645 69.3174887 103.293491 69.3174887 103.691124 69.7009536 103.691124 70.4423738L103.691124 79.875115zM102.499645 67.425674C101.639763 67.425674 101 66.7097633 101 65.7124256 101 64.7159107 101.639763 64 102.499645 64 103.360237 64 104 64.7159107 104 65.7124256 104 66.7097633 103.360237 67.425674 102.499645 67.425674zM113.396803 72.9049638C113.396803 71.7854291 112.625178 71.0312515 111.454468 71.0312515 110.310305 71.0312515 109.538681 71.7854291 109.538681 72.9049638 109.538681 73.9985212 110.310305 74.7535367 111.454468 74.7535367 112.625178 74.7535367 113.396803 73.9985212 113.396803 72.9049638M110.124465 80.6109824C109.379389 81.027456 109.006851 81.6006309 109.006851 82.2508996 109.006851 83.2145709 109.831573 83.9436092 111.719954 83.9436092 113.689695 83.9436092 114.514416 83.1617785 114.514416 82.1469907 114.514416 81.1313649 113.848987 80.792823 111.641165 80.7148913 111.002284 80.6889141 110.470454 80.6629369 110.124465 80.6109824M116.908935 71.655543L115.924065 71.655543C116.031116 72.0200621 116.110762 72.4365357 116.110762 72.8789865 116.110762 75.2228028 114.221524 76.7839503 111.454468 76.7839503 111.002284 76.7839503 110.603197 76.7319959 110.204111 76.6800414 110.017414 76.9138364 109.911219 77.1744467 109.911219 77.4610342 109.911219 78.1900725 110.5501 78.475822 111.853554 78.5026372 113.822438 78.5545916 114.993149 78.6844777 115.977162 79.2316755 116.935484 79.7780352 117.414216 80.6629369 117.414216 81.9123577 117.414216 84.3072904 115.605481 86 111.694262 86 107.995432 86 106 84.5159462 106 82.5634643 106 81.3919752 106.718527 80.455119 108.129032 79.8559669 107.543249 79.3875388 107.276906 78.7883867 107.276906 78.1121408 107.276906 77.2523784 107.703397 76.5501553 108.554667 76.05575 107.437054 75.3778282 106.771624 74.2842707 106.771624 72.9049638 106.771624 70.6147779 108.687411 69 111.454468 69 112.678276 69 113.742792 69.3125647 114.540965 69.8589244 115.232943 69.5463597 116.056808 69.3125647 116.802741 69.3125647 117.627462 69.3125647 118 69.6762459 118 70.4840538 118 71.2650466 117.627462 71.655543 116.908935 71.655543M122.690487 79.875115C122.690487 80.6165352 122.293658 81 121.49929 81 120.705632 81 120.308803 80.6165352 120.308803 79.875115L120.308803 70.4423738C120.308803 69.7009536 120.705632 69.3174887 121.49929 69.3174887 122.293658 69.3174887 122.690487 69.7009536 122.690487 70.4423738L122.690487 79.875115zM121.49929 67.425674C120.639612 67.425674 120 66.7097633 120 65.7124256 120 64.7159107 120.639612 64 121.49929 64 122.359678 64 123 64.7159107 123 65.7124256 123 66.7097633 122.359678 67.425674 121.49929 67.425674zM134 79.5856725C134 79.8888588 133.8728 80.1920451 133.43868 80.4448358 132.87818 80.7724071 131.98532 81 131.0424 81 129.30838 81 128.366281 80.318034 127.82958 79.3588924 127.34622 78.4997291 127.31996 77.4389834 127.31996 76.3026444L127.31996 71.8832773 126.12182 71.8832773C125.38242 71.8832773 125 71.5053105 125 70.7477512 125 69.989379 125.38242 69.6114122 126.12182 69.6114122L127.31996 69.6114122 127.31996 67.1111412C127.31996 66.3787797 127.77952 66 128.697 66 129.61448 66 130.07404 66.3787797 130.07404 67.1111412L130.07404 69.6114122 132.59752 69.6114122C133.33692 69.6114122 133.71934 69.989379 133.71934 70.7477512 133.71934 71.5053105 133.33692 71.8832773 132.59752 71.8832773L130.07404 71.8832773 130.07404 76.3026444C130.07404 76.8586214 130.07404 77.6161808 130.32844 78.0957516 130.53278 78.4745313 130.88976 78.6769264 131.42482 78.6769264 131.730099 78.6769264 132.06246 78.6005202 132.31686 78.4997291 132.57208 78.4241357 132.77642 78.3485423 132.955321 78.3485423 133.71934 78.3485423 134 79.1564972 134 79.5856725M137.780705 77.4340176C137.780705 78.1621282 138.244679 78.7352325 139.366539 78.7352325 140.073883 78.7352325 140.780443 78.4746544 141.439114 77.928362L141.439114 75.4030163C138.975576 75.7155425 137.780705 76.2098869 137.780705 77.4340176M139.512561 71.3686636C138.780879 71.3686636 138.097087 71.6032677 137.48866 71.94093 137.07336 72.1755341 136.853542 72.3573523 136.560712 72.3573523 135.878489 72.3573523 135.487526 71.5772937 135.487526 71.0041894 135.487526 70.6137411 135.707345 70.2752409 136.292219 69.9107667 137.268842 69.3125262 138.48805 69 139.781054 69 141.536462 69 142.609648 69.5211563 143.292655 70.405111 143.780967 71.0301634 144 71.993716 144 73.2689568L144 79.7767072C144 80.5835777 143.707955 80.974026 142.756455 80.974026 141.976099 80.974026 141.585921 80.7134478 141.585921 80.1403435L141.585921 79.6719732C140.854239 80.5576037 139.805391 81 138.48805 81 136.292219 81 135 79.6979472 135 77.6677838 135 75.2991202 136.829204 73.9459573 141.439114 73.5806452L141.439114 73.3209049C141.439114 72.01969 140.877791 71.3686636 139.512561 71.3686636M151 79.845385C151 80.6064005 150.499255 81 149.499553 81 148.498957 81 148 80.6064005 148 79.845385L148 64.1537704C148 63.3927549 148.498957 63 149.499553 63 150.499255 63 151 63.3927549 151 64.1537704L151 79.845385zM169.548244 77.4456204C169.246124 78.2954545 168.768242 78.6561159 167.963131 78.6561159 167.132911 78.6561159 166.62911 78.2954545 166.326991 77.4456204L162.326546 67.6837202 161.571653 79.8666114C161.521435 80.665041 161.067852 81 160.238442 81 159.357194 81 158.954638 80.6136364 159.004047 79.8666114L159.985731 65.7253707C160.061058 64.5671089 160.439314 64 161.798445 64 163.005301 64 163.609539 64.4891728 164.112531 65.7253707L168.038458 75.3587593 171.963576 65.7253707C172.441458 64.5671089 172.970369 64 174.254173 64 175.562275 64 175.939721 64.5928112 176.015049 65.7253707L176.995923 79.8666114C177.046951 80.6136364 176.618477 81 175.738849 81 174.857601 81 174.379718 80.665041 174.32869 79.8666114L173.548688 67.6837202 169.548244 77.4456204zM182.63672 73.8769209L187.388902 73.8769209C187.388902 72.3285339 186.617023 71.2195764 185.098887 71.2195764 183.706462 71.2195764 182.860918 72.1740274 182.63672 73.8769209M189.726159 78.9606812C189.726159 79.373529 189.477941 79.7357054 188.955881 80.0704693 188.009448 80.6901564 186.84122 81 185.472816 81 182.040195 81 180 78.7546726 180 75.064793 180 71.3998339 182.015374 69 185.149331 69 188.084715 69 190 71.1414925 190 74.1095113 190 75.7351516 189.353031 75.9154091 188.408199 75.9154091L182.661542 75.9154091C182.910561 77.6191333 183.830571 78.6259172 185.596925 78.6259172 186.368004 78.6259172 187.090239 78.444829 187.686764 78.0834833 188.03427 77.8766441 188.308111 77.7221376 188.606774 77.7221376 189.377853 77.7221376 189.726159 78.444829 189.726159 78.9606812M198.143505 71.2531978C196.14919 71.2531978 194.914573 72.6152368 194.914573 74.9471489 194.914573 77.3313499 196.174541 78.7203767 198.038719 78.7203767 198.852501 78.7203767 199.561497 78.4580893 200.165706 77.9343579L200.165706 71.8815068C199.587693 71.462353 198.904894 71.2531978 198.143505 71.2531978M197.80295 68.9474301C198.747715 68.9474301 199.561497 69.1574287 200.165706 69.5495947L200.165706 64.1520405C200.165706 63.3930094 200.638089 63 201.582008 63 202.527618 63 203 63.3930094 203 64.1520405L203 79.8201284C203 80.6069906 202.554659 80.9730122 201.60905 80.9730122 200.74203 80.9730122 200.375278 80.6322916 200.375278 80.0562714L200.375278 79.6894064C199.587693 80.5538584 198.511101 81 197.172544 81 194.231774 81 192 78.7988099 192 75.1040154 192 71.331631 194.310363 68.9474301 197.80295 68.9474301M208.691124 79.875115C208.691124 80.6165352 208.293491 81 207.499645 81 206.705799 81 206.308876 80.6165352 206.308876 79.875115L206.308876 70.4423738C206.308876 69.7009536 206.705799 69.3174887 207.499645 69.3174887 208.293491 69.3174887 208.691124 69.7009536 208.691124 70.4423738L208.691124 79.875115zM207.499645 67.425674C206.639053 67.425674 206 66.7097633 206 65.7124256 206 64.7159107 206.639053 64 207.499645 64 208.360237 64 209 64.7159107 209 65.7124256 209 66.7097633 208.360237 67.425674 207.499645 67.425674zM214.780705 77.4340176C214.780705 78.1621282 215.244679 78.7352325 216.366539 78.7352325 217.073883 78.7352325 217.780443 78.4746544 218.439114 77.928362L218.439114 75.4030163C215.975576 75.7155425 214.780705 76.2098869 214.780705 77.4340176M216.512561 71.3686636C215.780879 71.3686636 215.097087 71.6032677 214.48866 71.94093 214.07336 72.1755341 213.853542 72.3573523 213.560712 72.3573523 212.878489 72.3573523 212.487526 71.5772937 212.487526 71.0041894 212.487526 70.6137411 212.707345 70.2752409 213.292219 69.9107667 214.268842 69.3125262 215.48805 69 216.781054 69 218.536462 69 219.609648 69.5211563 220.292655 70.405111 220.780967 71.0301634 221 71.993716 221 73.2689568L221 79.7767072C221 80.5835777 220.707955 80.974026 219.756455 80.974026 218.976099 80.974026 218.585921 80.7134478 218.585921 80.1403435L218.585921 79.6719732C217.854239 80.5576037 216.805391 81 215.48805 81 213.292219 81 212 79.6979472 212 77.6677838 212 75.2991202 213.829204 73.9459573 218.439114 73.5806452L218.439114 73.3209049C218.439114 72.01969 217.877791 71.3686636 216.512561 71.3686636M94.9939567 102.437023C95.2255089 101.851269 95.3280534 101.162967 95.3280534 100.347505L95.3280534 91.1214651C95.3280534 90.382299 95.7646947 90 96.6644402 90 97.5625318 90 98 90.382299 98 91.1214651L98 100.322073C98 101.851269 97.7684478 102.819322 97.408715 103.660216 96.4064249 106.056558 94.2232188 107 91.5 107 88.7767812 107 86.6183842 106.107422 85.5656489 103.660216 85.1794529 102.768459 85 101.646994 85 100.347505L85 91.1214651C85 90.382299 85.4622774 90 86.4132952 90 87.3378499 90 87.8001272 90.382299 87.8001272 91.1214651L87.8001272 100.347505C87.8001272 101.162967 87.9034987 101.851269 88.1342239 102.437023 88.6998728 103.889924 89.9072519 104.578226 91.5512723 104.578226 93.2209288 104.578226 94.4283079 103.889924 94.9939567 102.437023M104.562879 96.2025245L104.562879 96.7781206C105.241407 95.7060309 106.422159 95 108.054994 95 109.437121 95 110.567732 95.4451613 111.296401 96.569425 111.773554 97.3015428 112 98.3206171 112 99.6274895L112 105.849649C112 106.607854 111.547918 107 110.642944 107 109.738779 107 109.285888 106.607854 109.285888 105.849649L109.285888 100.098738C109.285888 99.3927069 109.185605 98.7649369 108.883947 98.3206171 108.507076 97.745021 107.904569 97.48331 107.100687 97.48331 105.995148 97.48331 105.216336 98.0075736 104.714112 98.686676L104.714112 105.849649C104.714112 106.607854 104.261221 107 103.357056 107 102.452082 107 102 106.607854 102 105.849649L102 96.2025245C102 95.4451613 102.427012 95.0530154 103.306915 95.0530154 104.23615 95.0530154 104.58795 95.5225806 104.562879 96.2025245M117.691197 105.875115C117.691197 106.616535 117.293658 107 116.5 107 115.705632 107 115.308803 106.616535 115.308803 105.875115L115.308803 96.4415509C115.308803 95.7009536 115.705632 95.3174887 116.5 95.3174887 117.293658 95.3174887 117.691197 95.7009536 117.691197 96.4415509L117.691197 105.875115zM116.5 93.425674C115.639612 93.425674 115 92.7097633 115 91.7124256 115 90.7150879 115.639612 90 116.5 90 117.359678 90 118 90.7150879 118 91.7124256 118 92.7097633 117.359678 93.425674 116.5 93.425674zM125.994117 104.589822C126.665513 104.589822 127.33864 104.382091 127.849109 104.071746 128.144143 103.889878 128.41322 103.734705 128.73594 103.734705 129.514622 103.734705 130 104.382091 130 105.004449 130 105.471635 129.704101 105.807842 129.300052 106.067297 128.41322 106.689655 127.069562 107 125.913653 107 122.55321 107 120 104.615684 120 100.987486 120 97.4368743 122.445925 95 125.913653 95 127.042741 95 128.359578 95.2586207 129.300052 95.8818131 129.784565 96.1929922 130 96.5291991 130 96.9179644 130 97.5144605 129.56913 98.266129 128.762762 98.266129 128.466863 98.266129 128.252293 98.1368187 127.849109 97.9290879 127.257311 97.5920467 126.720021 97.4110122 125.994117 97.4110122 124.059526 97.4110122 122.98408 98.7583426 122.98408 100.934928 122.98408 103.086485 124.031839 104.589822 125.994117 104.589822M137.026609 104.739298C138.867811 104.739298 140.041202 103.299993 140.041202 101.038464 140.041202 98.7000069 138.840343 97.2350589 136.973391 97.2350589 135.133906 97.2350589 133.960515 98.7000069 133.960515 100.961536 133.960515 103.299993 135.160515 104.739298 137.026609 104.739298M137.026609 95C140.707296 95 143 97.3632729 143 100.961536 143 104.6359 140.627468 107 136.973391 107 133.293562 107 131 104.6359 131 101.038464 131 97.3632729 133.373391 95 137.026609 95M147.759046 105.849649C147.759046 106.607854 147.29852 107 146.379112 107 145.459704 107 145 106.607854 145 105.849649L145 96.2025245C145 95.4451613 145.434211 95.0530154 146.328947 95.0530154 147.273026 95.0530154 147.631579 95.5234222 147.605263 96.2025245L147.605263 97.1180926C148.219572 95.8103787 149.342928 95 150.824836 95 151.667763 95 152 95.3921459 152 96.2816269 152 97.171108 151.64227 97.5624123 150.671875 97.5893408 149.163651 97.6406732 148.321546 98.084993 147.759046 99.1831697L147.759046 105.849649zM156.562278 96.2025245L156.562278 96.7781206C157.241669 95.7060309 158.421708 95 160.054675 95 161.436914 95 162.568424 95.4451613 163.296344 96.569425 163.773536 97.3015428 164 98.3206171 164 99.6274895L164 105.849649C164 106.607854 163.547881 107 162.643643 107 161.738596 107 161.286477 106.607854 161.286477 105.849649L161.286477 100.098738C161.286477 99.3927069 161.186186 98.7649369 160.884503 98.3206171 160.507603 97.745021 159.905047 97.48331 159.1011 97.48331 157.994662 97.48331 157.216597 98.0075736 156.713523 98.686676L156.713523 105.849649C156.713523 106.607854 156.261404 107 155.357166 107 154.452119 107 154 106.607854 154 105.849649L154 96.2025245C154 95.4451613 154.426237 95.0530154 155.306212 95.0530154 156.236331 95.0530154 156.58735 95.5225806 156.562278 96.2025245"/>
  </g>
</svg>
