<svg width="16" height="16" viewBox="0 0 16 16">
  <path fill="#FF93B2" fill-rule="evenodd" d="M84,6 L87,6 L87,3 L84,3 L84,6 Z M87,15 L75,15 L75,9 L77,9 C77,11.206 78.795,13 81,13 C83.205,13 85,11.206 85,9 L87,9 L87,15 Z M81,7 C82.104,7 83,7.897 83,9 C83,10.103 82.104,11 81,11 C79.896,11 79,10.103 79,9 C79,7.897 79.896,7 81,7 Z M75,1 L74,1 C73.447,1 73,1.447 73,2 L73,16 C73,16.553 73.447,17 74,17 L88,17 C88.553,17 89,16.553 89,16 L89,2 C89,1.447 88.553,1 88,1 L75,1 Z" transform="translate(-73 -1)"/>
</svg>
