<svg width="16" height="13" viewBox="0 0 16 13">
  <path fill="#FF93B2" fill-rule="evenodd" d="M15.995,3.539 C15.406,3.801 14.774,3.977 14.11,4.057 C14.788,3.65 15.308,3.008 15.554,2.24 C14.919,2.617 14.216,2.891 13.469,3.037 C12.87,2.399 12.016,2 11.073,2 C9.26,2 7.79,3.471 7.79,5.283 C7.79,5.541 7.819,5.791 7.875,6.031 C5.147,5.895 2.727,4.588 1.108,2.602 C0.827,3.086 0.665,3.65 0.665,4.252 C0.665,5.391 1.423,6.395 2.304,6.984 C1.766,6.967 0.995,6.818 0.995,6.572 C0.995,6.588 0.995,6.602 0.995,6.615 C0.995,8.205 1.948,9.531 3.449,9.834 C3.174,9.908 2.795,9.949 2.496,9.949 C2.284,9.949 2.034,9.928 1.833,9.889 C2.251,11.193 3.441,12.143 4.877,12.17 C3.754,13.049 2.326,13.574 0.789,13.574 C0.524,13.574 0.257,13.559 0,13.529 C1.453,14.459 3.176,15.004 5.029,15.004 C11.068,15.004 14.368,10.002 14.368,5.664 C14.368,5.522 14.364,5.379 14.357,5.238 C14.999,4.775 15.556,4.197 15.995,3.539" transform="translate(0 -2)"/>
</svg>
