<svg width="1496" height="907" viewBox="0 0 1496 907" xmlns="http://www.w3.org/2000/svg">
  <path fill-rule="evenodd" d="M1495.03374,-0.39619698 L1472.76016,-0.369992764 L1471.42702,2.12104558 L1452.05883,35.6657184 L1413.46002,35.6657184 L1394.09838,2.1292344 L1393.15502,0.746961971 L1347.67269,0.746961971 L1346.84562,2.33395484 L1327.36115,36.0751593 L1288.98999,36.0751593 L1269.62835,2.53867528 L1268.57854,0.746961971 L1223.48927,0.746961971 L1222.43128,2.64021662 L1203.01068,36.2798798 L1164.51996,36.2798798 L1145.15832,2.74175796 L1143.90215,0.746961971 L1099.17156,0.746961971 L1097.90229,2.94647841 L1078.41945,36.6909584 L1040.04993,36.6909584 L1020.68665,3.15283661 L1019.02268,0.746961971 L1016.40226,0.746961971 L1016.39899,0.748599735 L997.40748,0.748599735 L997.40748,0.746961971 L975.133896,0.773166188 L973.799119,3.26420453 L954.430927,36.8088774 L915.833754,36.8088774 L896.472113,3.27239335 L895.527123,1.88848316 L850.043154,1.88848316 L849.216084,3.47711379 L829.736524,37.2183183 L791.362087,37.2183183 L772.002084,3.68183424 L770.95064,1.88848316 L725.863009,1.88848316 L724.806652,3.78337558 L705.384414,37.4230387 L666.893695,37.4230387 L647.530417,3.88655468 L646.27589,1.89012092 L601.545292,1.89012092 L600.274388,4.09291289 L580.794828,37.8341174 L542.422028,37.8341174 L523.062026,4.29763333 L521.398058,1.89012092 L518.777636,1.89012092 L518.775998,1.89175869 L499.612527,1.89175869 L499.612527,1.92615172 L477.373336,1.95071817 L476.040197,4.44175652 L456.672005,37.9864294 L418.073194,37.9864294 L398.713191,4.44994534 L397.768202,3.06603515 L352.28587,3.06603515 L351.4588,4.65466578 L331.975965,38.3958702 L293.604803,38.3958702 L274.243162,4.85938622 L273.193356,3.06603515 L228.104087,3.06603515 L227.04773,4.96256533 L207.625492,38.6005907 L169.133136,38.6005907 L149.773133,5.0624689 L148.518606,3.06603515 L103.78637,3.06603515 L102.517104,5.26718934 L83.0359063,39.0116693 L44.6647443,39.0116693 L25.3031037,5.47354755 L23.639136,3.06767291 L21.0187143,3.06767291 L21.0154388,3.06931067 L1.85196761,3.06931067 L1.85196761,7.98423906 L21.0383675,7.98423906 L40.3819927,41.4863301 L21.0383675,74.9900588 L1.85196761,74.9900588 L1.85196761,79.9426558 L21.0383675,79.9426558 L40.3295842,113.356308 L20.9351884,146.948476 L1.85196761,146.948476 L1.85196761,151.901072 L20.9351884,151.901072 L40.2788136,185.404801 L20.9351884,218.910168 L1.85196761,218.910168 L1.85196761,223.861127 L20.9351884,223.861127 L40.2558849,257.328825 L20.8926065,290.870222 L1.85196761,290.870222 L1.85196761,295.92436 L20.833647,295.92436 L40.1248638,329.33965 L20.7304679,362.931818 L1.85196761,362.931818 L1.85196761,367.881139 L20.7304679,367.881139 L40.0740931,401.384868 L20.7304679,434.888597 L1.85196761,434.888597 L1.85196761,434.89351 L1.5784611,434.89351 L1.5784611,439.805163 L1.85196761,439.805163 L1.85196761,439.839556 L20.7304679,439.839556 L40.0790064,473.356387 L20.7632232,506.812621 L1.5784611,506.812621 L1.5784611,511.76358 L20.764861,511.76358 L40.05444,545.178869 L20.6616819,578.771037 L1.5784611,578.771037 L1.5784611,583.721996 L20.6616819,583.721996 L40.0053071,617.229001 L20.6616819,650.732729 L1.5784611,650.732729 L1.5784611,655.682051 L20.6616819,655.682051 L39.9807406,689.154662 L20.6191,722.691146 L1.5784611,722.691146 L1.5784611,727.745284 L20.5601405,727.745284 L39.8497195,761.16385 L20.4569614,794.752742 L1.5784611,794.752742 L1.5784611,799.706977 L20.4569614,799.706977 L39.8005866,833.209068 L20.4569614,866.714434 L1.5784611,866.714434 L1.5784611,871.663756 L20.4569614,871.663756 L39.8169642,905.203515 L40.5867131,906.600527 L86.1116263,906.600527 L87.0729935,904.998795 L106.555829,871.252677 L144.928628,871.252677 L164.290269,904.794074 L165.544796,906.600527 L210.137821,906.600527 L211.482425,904.692533 L230.904663,871.051232 L269.39702,871.051232 L288.75866,904.592629 L289.90837,906.603803 L334.607851,906.603803 L336.013052,904.387909 L355.494249,870.641791 L393.867049,870.641791 L413.228689,904.183189 L414.515971,906.603803 L417.503252,906.603803 L417.514717,906.58415 L456.228171,906.58415 L456.239635,906.603803 L458.940308,906.603803 L460.438861,904.05053 L479.805415,870.505857 L499.371776,870.505857 L499.371776,870.489479 L518.214246,870.489479 L537.579162,904.025963 L538.345635,905.426251 L583.86891,905.426251 L584.833553,903.822881 L604.31475,870.080038 L642.68755,870.080038 L662.050829,903.61816 L663.30208,905.426251 L707.898381,905.426251 L709.242985,903.513343 L728.665223,869.875318 L767.155942,869.875318 L786.515944,903.41344 L787.66893,905.426251 L832.365135,905.426251 L833.771974,903.208719 L853.251533,869.465877 L891.625971,869.465877 L910.987611,903.002361 L912.273256,905.426251 L915.262174,905.426251 L915.273638,905.406598 L953.985455,905.406598 L953.998557,905.426251 L956.697592,905.426251 L958.197783,902.872978 L977.565975,869.328305 L996.960371,869.328305 L996.960371,869.347958 L1015.83887,869.347958 L1035.20051,902.887718 L1035.96698,904.28473 L1081.49354,904.28473 L1082.45654,902.682997 L1101.93774,868.938517 L1140.31054,868.938517 L1159.67218,902.478277 L1160.92671,904.28473 L1205.52137,904.28473 L1206.86433,902.376735 L1226.28821,868.733797 L1264.77893,868.733797 L1284.14221,902.275194 L1285.29192,904.286368 L1329.98976,904.286368 L1331.39496,902.070474 L1350.87616,868.325994 L1389.24896,868.325994 L1408.6106,901.867391 L1409.89788,904.286368 L1412.88516,904.286368 L1412.89499,904.268352 L1451.61172,904.268352 L1451.62154,904.286368 L1454.32222,904.286368 L1455.81913,901.734732 L1475.18732,868.188421 L1494.75532,868.188421 L1494.75532,863.2391 L1475.14147,863.2391 L1455.8175,829.774678 L1475.18569,796.231642 L1494.75369,796.231642 L1494.75369,791.280683 L1475.24137,791.280683 L1455.92067,757.817899 L1475.28887,724.273226 L1494.75369,724.273226 L1494.75369,719.219087 L1475.34127,719.219087 L1456.02222,685.756303 L1475.39041,652.209992 L1494.75205,652.209992 L1494.75205,647.259033 L1475.34127,647.259033 L1456.0304,613.789697 L1475.39696,580.245024 L1494.76024,580.245024 L1494.76024,575.292428 L1475.451,575.292428 L1456.13195,541.831281 L1475.50014,508.286608 L1494.76024,508.286608 L1494.76024,503.335649 L1475.451,503.335649 L1456.13195,469.872864 L1475.48048,436.362584 L1495.03211,436.362584 L1495.03211,431.413263 L1475.41661,431.413263 L1456.09591,397.94884 L1475.46411,364.404167 L1495.03047,364.404167 L1495.03047,359.454846 L1475.51815,359.454846 L1456.19746,325.990424 L1475.56565,292.447388 L1495.03047,292.447388 L1495.03047,287.39325 L1475.61969,287.39325 L1456.30064,253.928828 L1475.66719,220.385793 L1495.02719,220.385793 L1495.02719,215.433196 L1475.61806,215.433196 L1456.29572,181.970411 L1475.66555,148.425738 L1495.02555,148.425738 L1495.02555,143.474779 L1475.71796,143.474779 L1456.3989,110.011994 L1475.76709,76.4673215 L1495.02555,76.4673215 L1495.02555,71.511449 L1475.71796,71.511449 L1456.3989,38.0470266 L1475.76709,4.50399153 L1495.03374,4.50399153 L1495.03374,-0.39619698 Z M1331.97964,38.3811304 L1351.46084,4.63992591 L1389.832,4.63992591 L1409.17727,38.1436547 L1389.832,71.6473834 L1351.1857,71.6473834 L1331.97964,38.3811304 Z M1207.44902,38.6890299 L1226.87125,5.05100456 L1265.36361,5.05100456 L1284.70724,38.5547333 L1265.36361,72.0584621 L1226.71567,72.0584621 L1207.44902,38.6890299 Z M1083.03958,38.9952917 L1102.51914,5.255725 L1140.89194,5.255725 L1160.23721,38.7594538 L1140.89194,72.2631825 L1102.24564,72.2631825 L1083.03958,38.9952917 Z M958.780827,39.1901856 L978.149019,5.64551272 L997.233877,5.64551272 L997.233877,5.66352812 L1016.42191,5.66352812 L1035.76554,39.1672569 L1016.42191,72.6709856 L997.409118,72.6709856 L997.409118,72.6529702 L978.099886,72.6529702 L958.780827,39.1901856 Z M834.355017,39.5226516 L853.836215,5.7814471 L892.209015,5.7814471 L911.551002,39.2851759 L892.209015,72.7889046 L853.56107,72.7889046 L834.355017,39.5226516 Z M709.824391,39.8305511 L729.246629,6.19088798 L767.738985,6.19088798 L787.080973,39.6946167 L767.738985,73.1983455 L729.091041,73.1983455 L709.824391,39.8305511 Z M585.413321,40.1368129 L604.896157,6.39560842 L643.268956,6.39560842 L662.609306,39.8993372 L643.268956,73.4030659 L604.621012,73.4030659 L585.413321,40.1368129 Z M461.020267,40.3677376 L480.390097,6.82306471 L499.650196,6.82306471 L499.650196,6.80668707 L518.798927,6.80668707 L538.140915,40.3087781 L518.798927,73.8125068 L499.614165,73.8125068 L499.614165,73.8288845 L480.339326,73.8288845 L461.020267,40.3677376 Z M336.59282,40.7002036 L356.075655,6.95899908 L394.448455,6.95899908 L413.79208,40.4627278 L394.448455,73.9664566 L355.798873,73.9664566 L336.59282,40.7002036 Z M212.063831,41.0081031 L231.487707,7.36843997 L269.978426,7.36843997 L289.322051,40.8721687 L269.978426,74.3758975 L231.330482,74.3758975 L212.063831,41.0081031 Z M87.6560373,41.3160026 L107.135597,7.57316041 L145.508397,7.57316041 L164.852022,41.0768892 L145.508397,74.5806179 L106.860453,74.5806179 L87.6560373,41.3160026 Z M1394.11639,74.1220441 L1413.46002,40.6183154 L1452.10796,40.6183154 L1471.42702,74.0811 L1452.05883,107.625773 L1413.46002,107.625773 L1394.11639,74.1220441 Z M1269.64309,74.531485 L1288.98835,41.0277563 L1327.63629,41.0277563 L1346.84235,74.2940093 L1327.35951,108.035214 L1288.98835,108.035214 L1269.64309,74.531485 Z M1145.1747,74.7362055 L1164.51996,41.2324767 L1203.16626,41.2324767 L1222.43128,74.6002711 L1203.01068,108.239934 L1164.51996,108.239934 L1145.1747,74.7362055 Z M1020.7063,75.1456463 L1040.05157,41.6419176 L1078.69624,41.6419176 L1097.90229,74.9081706 L1078.41945,108.651013 L1040.04993,108.651013 L1020.7063,75.1456463 Z M896.491766,75.2652031 L915.835391,41.7614743 L954.481698,41.7614743 L973.800756,75.224259 L954.432565,108.768932 L915.835391,108.768932 L896.491766,75.2652031 Z M772.020099,75.674644 L791.362087,42.1709152 L830.011669,42.1709152 L849.216084,75.4371683 L829.736524,109.178373 L791.362087,109.178373 L772.020099,75.674644 Z M647.551708,75.8793644 L666.895333,42.3756357 L705.541639,42.3756357 L724.80829,75.74343 L705.386052,109.383093 L666.895333,109.383093 L647.551708,75.8793644 Z M523.080041,76.2904431 L542.423666,42.7867143 L581.069973,42.7867143 L581.069973,42.7850765 L600.276026,76.0513296 L580.796466,109.794172 L542.423666,109.794172 L523.080041,76.2904431 Z M398.732844,76.4427551 L418.074832,42.9390263 L456.721138,42.9390263 L476.041834,76.401811 L456.673643,109.946484 L418.074832,109.946484 L398.732844,76.4427551 Z M274.25954,76.852196 L293.604803,43.3484672 L332.252747,43.3484672 L351.4588,76.6147202 L331.975965,110.355925 L293.604803,110.355925 L274.25954,76.852196 Z M149.791148,77.0569164 L169.134773,43.5531876 L207.782717,43.5531876 L227.049368,76.9226198 L207.62713,110.560645 L169.134773,110.560645 L149.791148,77.0569164 Z M25.3211191,77.467995 L44.6647443,43.9626285 L83.3126884,43.9626285 L102.518741,77.2288816 L83.0359063,110.971724 L44.6647443,110.971724 L25.3211191,77.467995 Z M1331.97964,110.339547 L1351.46084,76.5983426 L1389.832,76.5983426 L1409.12322,110.013632 L1389.73046,143.6058 L1351.1857,143.6058 L1331.97964,110.339547 Z M1207.44902,110.647447 L1226.86962,77.0094213 L1265.36197,77.0094213 L1284.65319,110.423073 L1265.26043,144.016879 L1226.71567,144.016879 L1207.44902,110.647447 Z M1083.03958,110.955346 L1102.51914,77.2108662 L1140.89194,77.2108662 L1160.18316,110.626156 L1140.7904,144.221599 L1102.24564,144.221599 L1083.03958,110.955346 Z M958.780827,111.148602 L978.149019,77.6039294 L997.233877,77.6039294 L997.233877,77.6219448 L1016.42355,77.6219448 L1035.71477,111.037234 L1016.31874,144.629402 L997.409118,144.629402 L997.409118,144.611387 L978.099886,144.611387 L958.780827,111.148602 Z M834.355017,111.482706 L853.836215,77.7415016 L892.209015,77.7415016 L911.500231,111.158429 L892.105835,144.748959 L853.56107,144.748959 L834.355017,111.482706 Z M709.824391,111.790606 L729.244991,78.1509424 L767.73571,78.1509424 L787.028564,111.566232 L767.635806,145.1584 L729.091041,145.1584 L709.824391,111.790606 Z M585.413321,112.096867 L604.896157,78.3556629 L643.268956,78.3556629 L662.560173,111.770952 L643.165777,145.36312 L604.621012,145.36312 L585.413321,112.096867 Z M461.018629,112.327792 L480.386821,78.7814814 L499.648558,78.7814814 L499.648558,78.7651038 L518.797289,78.7651038 L538.088506,112.180393 L518.69411,145.772561 L499.612527,145.772561 L499.612527,145.788939 L480.33605,145.788939 L461.018629,112.327792 Z M336.596095,112.660258 L356.075655,78.9190535 L394.450093,78.9190535 L413.739672,112.334343 L394.346913,145.926511 L355.802149,145.926511 L336.596095,112.660258 Z M212.065469,112.968158 L231.487707,79.3284944 L269.978426,79.3284944 L289.269642,112.743784 L269.876884,146.335952 L231.332119,146.335952 L212.065469,112.968158 Z M87.6560373,113.274419 L107.135597,79.5315771 L145.510034,79.5315771 L164.799613,112.946867 L145.406855,146.540672 L106.86209,146.540672 L87.6560373,113.274419 Z M1394.06398,146.170538 L1413.46002,112.57837 L1452.00314,112.57837 L1471.32384,146.041155 L1451.95565,179.585827 L1413.3552,179.585827 L1394.06398,146.170538 Z M1269.59395,146.581616 L1288.98999,112.987811 L1327.53475,112.987811 L1346.74081,146.254064 L1327.25797,179.995268 L1288.88681,179.995268 L1269.59395,146.581616 Z M1145.12392,146.786337 L1164.51996,113.192531 L1203.06309,113.192531 L1222.32974,146.560326 L1202.9075,180.199989 L1164.41678,180.199989 L1145.12392,146.786337 Z M1020.65226,147.19414 L1040.04993,113.601972 L1078.59306,113.601972 L1097.79911,146.866587 L1078.31627,180.60943 L1039.94511,180.60943 L1020.65226,147.19414 Z M896.440995,147.312059 L915.837029,113.719891 L954.381794,113.719891 L973.697577,147.182676 L954.331023,180.727349 L915.73385,180.727349 L896.440995,147.312059 Z M771.969329,147.723138 L791.362087,114.13097 L829.906852,114.13097 L849.114542,147.397223 L829.633345,181.138427 L791.260545,181.138427 L771.969329,147.723138 Z M647.4993,147.927858 L666.895333,114.33569 L705.440098,114.33569 L724.705111,147.703484 L705.282873,181.343148 L666.792154,181.343148 L647.4993,147.927858 Z M523.030908,148.337299 L542.425304,114.745131 L580.970069,114.745131 L600.172846,148.011384 L580.693287,181.752589 L542.320487,181.752589 L523.030908,148.337299 Z M398.682074,148.489611 L418.074832,114.897443 L456.621234,114.897443 L475.938655,148.360228 L456.570464,181.904901 L417.971653,181.904901 L398.682074,148.489611 Z M274.210407,148.899052 L293.604803,115.306884 L332.149567,115.306884 L351.355621,148.573137 L331.872785,182.314341 L293.501623,182.314341 L274.210407,148.899052 Z M149.742015,149.103772 L169.134773,115.511604 L207.681176,115.511604 L226.946189,148.879399 L207.523951,182.519062 L169.033232,182.519062 L149.742015,149.103772 Z M25.2687107,149.516489 L44.6647443,115.922683 L83.2095093,115.922683 L102.415562,149.188936 L82.934365,182.931778 L44.5615652,182.931778 L25.2687107,149.516489 Z M1331.87646,182.297964 L1351.35766,148.556759 L1389.73046,148.556759 L1409.07409,182.060488 L1389.73046,215.565855 L1351.08252,215.565855 L1331.87646,182.297964 Z M1207.34584,182.607501 L1226.76808,148.967838 L1265.25879,148.967838 L1284.60078,182.471567 L1265.25879,215.976933 L1226.61249,215.976933 L1207.34584,182.607501 Z M1082.93641,182.915401 L1102.4176,149.170921 L1140.7904,149.170921 L1160.13403,182.674649 L1140.7904,216.181654 L1102.14246,216.181654 L1082.93641,182.915401 Z M958.67601,183.110294 L978.045839,149.565622 L997.233877,149.565622 L997.233877,149.583637 L1016.31874,149.583637 L1016.31874,149.581999 L1035.66236,183.085728 L1016.31874,216.591095 L997.409118,216.591095 L997.409118,216.571441 L977.995069,216.571441 L958.67601,183.110294 Z M834.251838,183.441123 L853.734673,149.699918 L892.107473,149.699918 L911.449461,183.203647 L892.105835,216.707376 L853.457891,216.707376 L834.251838,183.441123 Z M709.72285,183.749022 L729.14345,150.109359 L767.635806,150.109359 L786.979431,183.613088 L767.635806,217.116817 L728.9895,217.116817 L709.72285,183.749022 Z M585.313418,184.055284 L604.794615,150.312442 L643.165777,150.312442 L662.51104,183.816171 L643.165777,217.321537 L604.519471,217.321537 L585.313418,184.055284 Z M460.918726,184.287846 L480.286918,150.743174 L499.648558,150.743174 L499.648558,150.741536 L499.648558,150.725158 L518.695748,150.725158 L538.039373,184.228887 L518.695748,217.732616 L499.614165,217.732616 L499.614165,217.748993 L480.237785,217.748993 L460.918726,184.287846 Z M336.492916,184.618675 L355.974114,150.87747 L394.346913,150.87747 L413.690539,184.381199 L394.346913,217.884928 L355.698969,217.884928 L336.492916,184.618675 Z M211.96229,184.926574 L231.384528,151.286911 L269.875247,151.286911 L289.218872,184.79064 L269.876884,218.294369 L231.22894,218.294369 L211.96229,184.926574 Z M87.5528582,185.232836 L107.032418,151.491632 L145.406855,151.491632 L164.75048,184.99536 L145.406855,218.499089 L106.758911,218.499089 L87.5528582,185.232836 Z M1394.01321,218.042153 L1413.3552,184.536787 L1452.00314,184.536787 L1471.32384,218.001209 L1451.95565,251.545882 L1413.3552,251.545882 L1394.01321,218.042153 Z M1269.54318,218.451594 L1288.88681,184.946227 L1327.53475,184.946227 L1346.74081,218.214118 L1327.25797,251.955323 L1288.88681,251.955323 L1269.54318,218.451594 Z M1145.07315,218.656314 L1164.41678,185.150948 L1203.06309,185.150948 L1222.32974,218.522018 L1202.9075,252.160043 L1164.41678,252.160043 L1145.07315,218.656314 Z M1020.60149,219.065755 L1039.94511,185.560389 L1078.59306,185.560389 L1097.79911,218.82828 L1078.31627,252.569484 L1039.94511,252.569484 L1020.60149,219.065755 Z M896.388587,219.183674 L915.73385,185.679945 L954.381794,185.679945 L973.697577,219.14273 L954.331023,252.687403 L915.73385,252.687403 L896.388587,219.183674 Z M771.91692,219.594753 L791.260545,186.091024 L829.906852,186.091024 L849.114542,219.355639 L829.633345,253.098482 L791.260545,253.098482 L771.91692,219.594753 Z M647.448529,219.797836 L666.792154,186.294107 L705.440098,186.294107 L724.705111,219.663539 L705.282873,253.301564 L666.792154,253.301564 L647.448529,219.797836 Z M522.975224,220.208914 L542.320487,186.705185 L580.966793,186.705185 L600.172846,219.971439 L580.693287,253.712643 L542.320487,253.712643 L522.975224,220.208914 Z M398.629665,220.361226 L417.971653,186.857497 L456.621234,186.857497 L475.938655,220.320282 L456.570464,253.864955 L417.971653,253.864955 L398.629665,220.361226 Z M274.15636,220.770667 L293.501623,187.266938 L332.149567,187.266938 L351.355621,220.533191 L331.872785,254.274396 L293.501623,254.274396 L274.15636,220.770667 Z M149.687969,220.975388 L169.033232,187.471659 L207.681176,187.471659 L226.946189,220.841091 L207.523951,254.479116 L169.033232,254.479116 L149.687969,220.975388 Z M25.2195778,221.384828 L44.563203,187.8811 L83.211147,187.8811 L102.4172,221.14899 L82.9360028,254.891833 L44.563203,254.891833 L25.2195778,221.384828 Z M1331.87646,254.261294 L1351.35766,220.518452 L1389.73046,220.518452 L1409.05443,253.986149 L1389.68952,287.525909 L1351.08252,287.525909 L1331.87646,254.261294 Z M1226.61249,287.936988 L1207.34584,254.569193 L1226.76808,220.92953 L1265.25879,220.92953 L1284.58277,254.397228 L1265.21621,287.936988 L1226.61249,287.936988 Z M1082.93804,254.877093 L1102.41924,221.130975 L1140.79204,221.130975 L1160.11274,254.600311 L1140.74946,288.141708 L1102.1441,288.141708 L1082.93804,254.877093 Z M958.679286,255.067073 L978.047477,221.522401 L997.235515,221.522401 L997.235515,221.542054 L1016.31874,221.542054 L1035.64107,255.011389 L1016.27779,288.551149 L997.409118,288.551149 L997.409118,288.529858 L977.996707,288.529858 L958.679286,255.067073 Z M834.251838,255.401177 L853.734673,221.658335 L892.107473,221.658335 L911.429807,255.127671 L892.061616,288.66743 L853.457891,288.66743 L834.251838,255.401177 Z M709.72285,255.709077 L729.14345,222.069414 L767.635806,222.069414 L786.958141,255.537112 L767.593224,289.076871 L728.9895,289.076871 L709.72285,255.709077 Z M585.313418,256.015339 L604.794615,222.272496 L643.165777,222.272496 L662.488111,255.740194 L643.121558,289.281592 L604.519471,289.281592 L585.313418,256.015339 Z M460.918726,256.246263 L480.286918,222.699953 L499.648558,222.699953 L499.648558,222.683575 L518.695748,222.683575 L538.018082,256.151273 L518.653166,289.69267 L499.614165,289.69267 L499.614165,289.70741 L480.237785,289.70741 L460.918726,256.246263 Z M336.492916,256.580367 L355.974114,222.835887 L394.346913,222.835887 L413.66761,256.30686 L394.302694,289.844982 L355.698969,289.844982 L336.492916,256.580367 Z M211.96229,256.888266 L231.384528,223.246966 L269.875247,223.246966 L289.197581,256.717939 L269.832665,290.254423 L231.22894,290.254423 L211.96229,256.888266 Z M87.5544959,257.196166 L107.032418,223.451686 L145.406855,223.451686 L164.725914,256.92266 L145.364273,290.460781 L106.760549,290.460781 L87.5544959,257.196166 Z M1393.9346,290.141417 L1413.29788,256.60002 L1451.9016,256.60002 L1471.2223,290.062805 L1451.85247,323.607478 L1413.2553,323.607478 L1393.9346,290.141417 Z M1269.46293,290.550858 L1288.82785,257.009461 L1327.42994,257.009461 L1346.63599,290.277352 L1327.15479,324.016918 L1288.78363,324.016918 L1269.46293,290.550858 Z M1144.9929,290.755579 L1164.35618,257.214181 L1202.95991,257.214181 L1222.22492,290.583614 L1202.80432,324.221639 L1164.3136,324.221639 L1144.9929,290.755579 Z M1020.52287,291.16502 L1039.88779,257.623622 L1078.48988,257.623622 L1097.69757,290.889875 L1078.21637,324.63108 L1039.84357,324.63108 L1020.52287,291.16502 Z M896.306699,291.282939 L915.673253,257.741541 L954.276977,257.741541 L973.596036,291.204326 L954.227844,324.748999 L915.630671,324.748999 L896.306699,291.282939 Z M771.83667,291.694017 L791.201586,258.15262 L829.80531,258.15262 L849.011363,291.417235 L829.531804,325.160077 L791.157366,325.160077 L771.83667,291.694017 Z M647.368278,291.895462 L666.733195,258.355703 L705.336919,258.355703 L724.601931,291.725135 L705.181331,325.36316 L666.688975,325.36316 L647.368278,291.895462 Z M522.898249,292.304903 L542.261528,258.766781 L580.863614,258.766781 L600.072943,292.033034 L580.591746,325.774239 L542.218946,325.774239 L522.898249,292.304903 Z M398.547777,292.460491 L417.912693,258.919093 L456.51478,258.919093 L475.835476,292.381878 L456.467285,325.926551 L417.868473,325.926551 L398.547777,292.460491 Z M274.07611,292.869931 L293.441026,259.328534 L332.044751,259.328534 L351.252441,292.594787 L331.769606,326.335992 L293.398444,326.335992 L274.07611,292.869931 Z M149.610994,293.074652 L168.974273,259.533255 L207.577997,259.533255 L226.844647,292.902687 L207.422409,326.54235 L168.931691,326.54235 L149.610994,293.074652 Z M25.1376896,293.484093 L44.5026057,259.942695 L83.1063302,259.942695 L102.312383,293.210586 L82.8311859,326.951791 L44.4583861,326.951791 L25.1376896,293.484093 Z M1331.77492,326.32289 L1351.25448,292.580047 L1389.62728,292.580047 L1408.9185,325.996975 L1389.52574,359.585867 L1350.98098,359.585867 L1350.98098,359.589143 L1331.77492,326.32289 Z M1207.2443,326.630789 L1226.6649,292.991126 L1265.15725,292.991126 L1284.44847,326.406415 L1265.05407,359.998583 L1226.50931,359.998583 L1207.2443,326.630789 Z M1082.83486,326.938689 L1102.31442,293.192571 L1140.68722,293.192571 L1159.98008,326.609498 L1140.58568,360.200028 L1102.04092,360.200028 L1102.04092,360.201666 L1082.83486,326.938689 Z M958.576106,327.128669 L977.944298,293.583996 L997.233877,293.583996 L997.233877,293.60365 L1016.21719,293.60365 L1035.51005,327.020577 L1016.11565,360.611107 L997.40748,360.611107 L997.40748,360.591454 L977.895165,360.591454 L958.576106,327.128669 Z M834.148659,327.462773 L853.631494,293.719931 L892.002656,293.719931 L911.295511,327.13522 L891.901115,360.729026 L853.35635,360.729026 L834.148659,327.462773 Z M709.619671,327.770673 L729.040271,294.131009 L767.532627,294.131009 L786.823844,327.546299 L767.431086,361.138467 L728.886321,361.138467 L709.619671,327.770673 Z M585.210239,328.076934 L604.691436,294.33573 L643.062598,294.33573 L662.355453,327.749382 L642.959419,361.343187 L604.416292,361.343187 L585.210239,328.076934 Z M460.813909,328.306221 L480.182101,294.763186 L499.64692,294.763186 L499.64692,294.745171 L518.592569,294.745171 L537.883786,328.162098 L518.48939,361.752628 L499.612527,361.752628 L499.612527,361.769006 L480.132968,361.769006 L460.813909,328.306221 Z M336.389737,328.641963 L355.869297,294.897483 L394.243734,294.897483 L413.533313,328.31441 L394.142193,361.906578 L355.59579,361.906578 L336.389737,328.641963 Z M211.859111,328.949862 L231.282987,295.308561 L269.773705,295.308561 L289.064922,328.725489 L269.670526,362.316019 L231.125761,362.316019 L211.859111,328.949862 Z M87.4496791,329.256124 L106.929239,295.51492 L145.303676,295.51492 L164.593255,328.930209 L145.200497,362.522377 L106.655732,362.522377 L87.4496791,329.256124 Z M1393.85926,362.152243 L1413.2553,328.558437 L1451.79842,328.558437 L1471.11912,362.021221 L1451.75093,395.565894 L1413.15048,395.565894 L1393.85926,362.152243 Z M1269.38923,362.561683 L1288.7869,328.967878 L1327.33003,328.967878 L1346.53609,362.235768 L1327.05325,395.975335 L1288.68209,395.975335 L1269.38923,362.561683 Z M1144.92084,362.766404 L1164.31524,329.172598 L1202.85837,329.172598 L1222.12665,362.54203 L1202.70278,396.180056 L1164.21206,396.180056 L1144.92084,362.766404 Z M1020.44754,363.177483 L1039.84357,329.583677 L1078.38834,329.583677 L1097.59439,362.84993 L1078.11155,396.591134 L1039.74039,396.591134 L1020.44754,363.177483 Z M896.236275,363.292126 L915.630671,329.699958 L954.175436,329.699958 L973.494495,363.162743 L954.126303,396.707415 L915.527492,396.707415 L896.236275,363.292126 Z M771.764608,363.703205 L791.157366,330.111037 L829.702131,330.111037 L848.909822,363.37729 L829.428625,397.118494 L791.055825,397.118494 L771.764608,363.703205 Z M647.294579,363.907925 L666.688975,330.315757 L705.23374,330.315757 L724.498752,363.685189 L705.078152,397.323215 L666.585796,397.323215 L647.294579,363.907925 Z M522.82455,364.317366 L542.218946,330.726836 L580.763711,330.726836 L599.969764,363.989813 L580.488566,397.734293 L542.115767,397.734293 L522.82455,364.317366 Z M398.477353,364.471316 L417.870111,330.87751 L456.416514,330.87751 L475.733935,364.340295 L456.365743,397.884967 L417.766932,397.884967 L398.477353,364.471316 Z M274.004048,364.882394 L293.400082,331.288589 L331.944847,331.288589 L351.1509,364.554842 L331.668065,398.296046 L293.296903,398.296046 L274.004048,364.882394 Z M149.537295,365.087115 L168.931691,331.491671 L207.474818,331.491671 L226.741468,364.861103 L207.31923,398.499129 L168.828512,398.499129 L149.537295,365.087115 Z M25.065628,365.494918 L44.4600239,331.901112 L83.0047888,331.901112 L102.210842,365.169003 L82.7296445,398.910207 L44.3568448,398.910207 L25.065628,365.494918 Z M1331.67174,398.281306 L1351.15294,364.538464 L1389.52574,364.538464 L1408.86937,398.042193 L1389.52574,431.547559 L1350.8778,431.547559 L1331.67174,398.281306 Z M1207.14112,398.590844 L1226.56335,364.947905 L1265.05407,364.947905 L1284.39606,398.451634 L1265.05407,431.955362 L1226.40777,431.955362 L1207.14112,398.590844 Z M1082.73168,398.897105 L1102.21288,365.150988 L1140.58568,365.150988 L1159.92931,398.654716 L1140.58568,432.160083 L1101.93774,432.160083 L1082.73168,398.897105 Z M958.472927,399.087086 L977.841119,365.544051 L997.233877,365.544051 L997.233877,365.562066 L1016.11565,365.562066 L1035.45764,399.065795 L1016.11565,432.569524 L997.40748,432.569524 L997.40748,432.551508 L977.790348,432.551508 L958.472927,399.087086 Z M834.04548,399.42119 L853.528315,365.678347 L891.901115,365.678347 L911.24474,399.182076 L891.901115,432.687443 L853.251533,432.687443 L834.04548,399.42119 Z M709.516492,399.729089 L728.937092,366.089426 L767.429448,366.089426 L786.773073,399.593155 L767.431086,433.096884 L728.783142,433.096884 L709.516492,399.729089 Z M585.10706,400.035351 L604.588257,366.292509 L642.959419,366.292509 L662.304682,399.796238 L642.959419,433.301604 L604.313113,433.301604 L585.10706,400.035351 Z M499.64692,366.703587 L518.491028,366.703587 L537.833015,400.207316 L518.491028,433.711045 L499.614165,433.711045 L499.614165,433.715958 L499.340659,433.715958 L499.340659,433.725785 L480.033064,433.725785 L460.714005,400.263 L480.082197,366.719965 L499.64692,366.719965 L499.64692,366.703587 Z M336.288196,400.600379 L355.767756,366.855899 L394.142193,366.855899 L413.485818,400.359628 L394.142193,433.864995 L355.494249,433.864995 L336.288196,400.600379 Z M211.75757,400.908279 L231.181445,367.268616 L269.670526,367.268616 L289.015789,400.772345 L269.670526,434.276073 L231.022582,434.276073 L211.75757,400.908279 Z M87.3481377,401.214541 L106.827697,367.473336 L145.202135,367.473336 L164.54576,400.977065 L145.202135,434.480794 L106.554191,434.480794 L87.3481377,401.214541 Z M1393.83633,433.976363 L1413.15048,400.518491 L1451.79842,400.518491 L1471.11912,433.981276 L1451.77222,467.491556 L1413.18487,467.491556 L1393.83633,433.976363 Z M1269.3663,434.384166 L1288.68209,400.926294 L1327.33003,400.926294 L1346.53609,434.194185 L1327.07454,467.899359 L1288.71484,467.899359 L1269.3663,434.384166 Z M1144.89628,434.588886 L1164.2137,401.132653 L1202.86164,401.132653 L1222.12829,434.502085 L1202.72407,468.104079 L1164.24645,468.104079 L1144.89628,434.588886 Z M1020.42625,434.998327 L1039.74039,401.542093 L1078.38997,401.542093 L1097.59439,434.809984 L1078.13448,468.51352 L1039.77479,468.51352 L1020.42625,434.998327 Z M896.213346,435.117884 L915.527492,401.660012 L954.175436,401.660012 L973.494495,435.122797 L954.145956,468.633077 L915.560247,468.633077 L896.213346,435.117884 Z M771.740042,435.528962 L791.055825,402.071091 L829.702131,402.071091 L848.909822,435.335706 L829.44664,469.045793 L791.090218,469.045793 L771.740042,435.528962 Z M647.27165,435.732045 L666.585796,402.275812 L705.23374,402.275812 L724.498752,435.643606 L705.097805,469.247238 L666.620189,469.247238 L647.27165,435.732045 Z M522.803259,436.143124 L542.119042,402.68689 L580.766986,402.68689 L599.969764,435.949868 L580.509857,469.658317 L542.151798,469.658317 L522.803259,436.143124 Z M398.451149,436.295436 L417.765294,402.837564 L456.414876,402.837564 L475.733935,436.300349 L456.383759,469.810629 L417.801325,469.810629 L398.451149,436.295436 Z M273.982758,436.708152 L293.298541,403.248643 L331.944847,403.248643 L331.944847,403.247005 L351.1509,436.514896 L331.690994,470.221708 L293.331296,470.221708 L273.982758,436.708152 Z M149.512728,436.909597 L168.828512,403.451726 L207.474818,403.451726 L226.741468,436.821158 L207.337246,470.42479 L168.861267,470.42479 L149.512728,436.909597 Z M25.0426993,437.320676 L44.3568448,403.861167 L83.0047888,403.861167 L102.210842,437.129057 L82.7509355,470.835869 L44.3896001,470.835869 L25.0426993,437.320676 Z M1331.70777,470.203692 L1351.16604,436.498518 L1389.52574,436.498518 L1408.87428,470.013712 L1389.5585,503.469945 L1350.91219,503.469945 L1331.70777,470.203692 Z M1207.17551,470.511592 L1226.57809,436.906322 L1265.05407,436.906322 L1284.40589,470.423152 L1265.08683,503.879386 L1226.44216,503.879386 L1207.17551,470.511592 Z M1082.76608,470.819491 L1102.22598,437.11268 L1140.58568,437.11268 L1159.93422,470.629511 L1140.61844,504.085744 L1101.97049,504.085744 L1082.76608,470.819491 Z M958.50732,471.012747 L977.854221,437.50083 L997.233877,437.50083 L997.233877,437.520483 L1016.11238,437.520483 L1035.46255,471.037314 L1016.14513,504.495185 L997.133974,504.495185 L997.133974,504.475532 L977.826379,504.475532 L958.50732,471.012747 Z M834.081511,471.346851 L853.546331,437.64004 L891.902753,437.64004 L911.251291,471.155233 L891.93387,504.614742 L853.287564,504.614742 L834.081511,471.346851 Z M709.55416,471.656388 L728.955107,438.049481 L767.432724,438.049481 L786.779624,471.564674 L767.465479,505.022545 L728.817535,505.022545 L709.55416,471.656388 Z M585.14309,471.961012 L604.602997,438.252563 L642.959419,438.252563 L662.309595,471.767756 L642.993812,505.225628 L604.345868,505.225628 L585.14309,471.961012 Z M460.745123,472.190299 L480.095299,438.68002 L499.64692,438.68002 L499.64692,438.662004 L518.491028,438.662004 L537.841204,472.175559 L518.523783,505.635069 L499.340659,505.635069 L499.340659,505.636706 L499.340659,505.653084 L480.065819,505.653084 L460.745123,472.190299 Z M336.319313,472.524403 L355.782495,438.817592 L394.140555,438.817592 L413.487456,472.334423 L394.173311,505.792294 L355.525366,505.792294 L336.319313,472.524403 Z M211.788687,472.83394 L231.194547,439.22867 L269.670526,439.22867 L289.020702,472.743863 L269.704919,506.200097 L231.055337,506.200097 L211.788687,472.83394 Z M87.3825308,473.138564 L106.842437,439.433391 L145.200497,439.433391 L164.549036,472.948584 L145.233252,506.404817 L106.585308,506.404817 L87.3825308,473.138564 Z M1393.84125,505.946244 L1413.18651,472.442515 L1451.83445,472.442515 L1471.15351,505.9053 L1451.78368,539.449972 L1413.18651,539.449972 L1393.84125,505.946244 Z M1269.37122,506.355685 L1288.71484,472.851956 L1327.36115,472.851956 L1346.5672,506.118209 L1327.08764,539.859413 L1288.71484,539.859413 L1269.37122,506.355685 Z M1144.89955,506.560405 L1164.24481,473.056676 L1202.89276,473.056676 L1222.15941,506.424471 L1202.73553,540.064134 L1164.24481,540.064134 L1144.89955,506.560405 Z M1020.43116,506.971484 L1039.77479,473.466117 L1078.42273,473.466117 L1097.62714,506.73237 L1078.14758,540.475212 L1039.77479,540.475212 L1020.43116,506.971484 Z M896.21826,507.089403 L915.560247,473.587312 L954.209829,473.587312 L973.528888,507.048459 L954.160696,540.594769 L915.561885,540.594769 L896.21826,507.089403 Z M771.748231,507.500481 L791.091856,473.996753 L829.7398,473.996753 L848.945853,507.261368 L829.464655,541.00421 L791.091856,541.00421 L771.748231,507.500481 Z M647.278201,507.703564 L666.621827,474.199835 L705.268133,474.199835 L724.536421,507.56763 L705.115821,541.207293 L666.623464,541.207293 L647.278201,507.703564 Z M522.808172,508.114643 L542.151798,474.609276 L580.799742,474.609276 L600.005795,507.875529 L580.524597,541.618371 L542.151798,541.618371 L522.808172,508.114643 Z M398.4577,508.265317 L417.801325,474.761588 L456.449269,474.761588 L475.76669,508.226011 L456.400136,541.769046 L417.802963,541.769046 L398.4577,508.265317 Z M273.987671,508.674758 L293.329658,475.171029 L331.977602,475.171029 L351.185293,508.437282 L331.704096,542.178486 L293.329658,542.178486 L273.987671,508.674758 Z M149.51928,508.879478 L168.861267,475.375749 L207.509211,475.375749 L226.775861,508.743544 L207.351986,542.383207 L168.862905,542.383207 L149.51928,508.879478 Z M25.0476126,509.288919 L44.3896001,475.78519 L83.0391819,475.78519 L102.245235,509.051443 L82.7640376,542.792648 L44.3896001,542.792648 L25.0476126,509.288919 Z M1331.70777,542.163747 L1351.18733,508.422542 L1389.56013,508.422542 L1408.85135,541.837832 L1389.45695,575.43 L1350.91219,575.43 L1331.70777,542.163747 Z M1207.17551,542.471646 L1226.59775,508.831983 L1265.08683,508.831983 L1284.37805,542.247273 L1264.98529,575.837803 L1226.44216,575.837803 L1207.17551,542.471646 Z M1082.76608,542.777908 L1102.24728,509.035066 L1140.62008,509.035066 L1159.91129,542.450355 L1140.5169,576.042523 L1101.97213,576.042523 L1082.76608,542.777908 Z M958.50732,542.972802 L977.875512,509.428129 L996.962008,509.428129 L996.962008,509.447782 L1016.14677,509.447782 L1035.43799,542.861434 L1016.04523,576.453602 L997.133974,576.453602 L997.133974,576.435586 L977.826379,576.435586 L958.50732,542.972802 Z M834.081511,543.305268 L853.564346,509.564063 L891.937146,509.564063 L911.228363,542.980991 L891.833967,576.571521 L853.289202,576.571521 L834.081511,543.305268 Z M709.55416,543.613167 L728.97476,509.973504 L767.465479,509.973504 L786.756696,543.390432 L767.3623,576.980962 L728.817535,576.980962 L709.55416,543.613167 Z M585.14309,543.922705 L604.624288,510.178225 L642.997088,510.178225 L662.288304,543.593514 L642.892271,577.185682 L604.347506,577.185682 L585.14309,543.922705 Z M460.745123,544.148716 L480.114952,510.604043 L499.375052,510.604043 L499.375052,510.587666 L518.523783,510.587666 L537.815,544.002955 L518.422242,577.595123 L499.340659,577.595123 L499.340659,577.611501 L480.065819,577.611501 L460.745123,544.148716 Z M336.322589,544.484458 L355.803786,510.743253 L394.176586,510.743253 L413.467803,544.156905 L394.073407,577.749073 L355.528642,577.749073 L336.322589,544.484458 Z M211.788687,544.790719 L231.2142,511.151056 L269.704919,511.151056 L288.996136,544.566346 L269.60174,578.158514 L231.055337,578.158514 L211.788687,544.790719 Z M87.380893,545.096981 L106.86209,511.355777 L145.23489,511.355777 L164.526107,544.771066 L145.131711,578.363234 L106.586946,578.363234 L87.380893,545.096981 Z M1393.79211,577.9931 L1413.18651,544.400932 L1451.72964,544.400932 L1471.05033,577.863716 L1451.68214,611.408389 L1413.08333,611.408389 L1393.79211,577.9931 Z M1269.32045,578.40254 L1288.71648,544.810372 L1327.25961,544.810372 L1346.4673,578.078263 L1326.98446,611.81783 L1288.61166,611.81783 L1269.32045,578.40254 Z M1144.85042,578.608899 L1164.24481,545.016731 L1202.78794,545.016731 L1222.05623,578.384525 L1202.63235,612.024188 L1164.14327,612.024188 L1144.85042,578.608899 Z M1020.37875,579.019977 L1039.77479,545.426172 L1078.31791,545.426172 L1097.5256,578.690787 L1078.04277,612.435267 L1039.66997,612.435267 L1020.37875,579.019977 Z M896.169127,579.137896 L915.560247,545.544091 L954.105012,545.544091 L973.425708,579.006875 L954.057517,612.551548 L915.460343,612.551548 L896.169127,579.137896 Z M771.69746,579.547337 L791.091856,545.953531 L829.636621,545.953531 L848.842674,579.219784 L829.359839,612.960989 L790.988677,612.960989 L771.69746,579.547337 Z M647.229069,579.752058 L666.621827,546.158252 L705.164954,546.158252 L724.433242,579.526046 L705.012642,613.165709 L666.520285,613.165709 L647.229069,579.752058 Z M522.755764,580.161499 L542.151798,546.567693 L580.696562,546.567693 L599.902615,579.833946 L580.421418,613.576788 L542.048618,613.576788 L522.755764,580.161499 Z M398.406929,580.315448 L417.801325,546.72328 L456.34609,546.72328 L475.663511,580.186065 L456.295319,613.7291 L417.699784,613.7291 L398.406929,580.315448 Z M273.9369,580.723251 L293.329658,547.132721 L331.874423,547.132721 L351.082114,580.397336 L331.600917,614.138541 L293.226479,614.138541 L273.9369,580.723251 Z M149.466871,580.927972 L168.862905,547.335804 L207.406032,547.335804 L226.672682,580.703598 L207.248807,614.341624 L168.759726,614.341624 L149.466871,580.927972 Z M24.996842,581.337413 L44.3896001,547.745245 L82.9360028,547.745245 L102.142056,581.011498 L82.6608585,614.75434 L44.286421,614.75434 L24.996842,581.337413 Z M1331.60296,614.122163 L1351.08415,580.380959 L1389.45695,580.380959 L1408.79894,613.884688 L1389.45695,647.390054 L1350.81065,647.390054 L1331.60296,614.122163 Z M1207.07233,614.430063 L1226.49621,580.7904 L1264.98693,580.7904 L1284.33055,614.294128 L1264.98693,647.799495 L1226.33898,647.799495 L1207.07233,614.430063 Z M1082.6629,614.736325 L1102.14573,580.996758 L1140.5169,580.996758 L1159.86052,614.498849 L1140.5169,648.004215 L1101.87059,648.004215 L1082.6629,614.736325 Z M977.724838,648.394003 L958.405779,614.932856 L977.773971,581.389821 L996.963646,581.389821 L996.963646,581.407837 L1016.04687,581.407837 L1035.39049,614.911565 L1016.04687,648.416932 L997.135611,648.416932 L997.135611,648.397279 L977.724838,648.397279 L977.724838,648.394003 Z M833.97997,615.26696 L853.459529,581.525756 L891.833967,581.525756 L911.177592,615.029484 L891.833967,648.533213 L853.184385,648.533213 L833.97997,615.26696 Z M709.449343,615.57486 L728.871581,581.935196 L767.3623,581.935196 L786.704287,615.438925 L767.3623,648.941016 L728.714356,648.941016 L709.449343,615.57486 Z M585.039911,615.879484 L604.521109,582.136641 L642.893908,582.136641 L662.237534,615.642008 L642.893908,649.145737 L604.245964,649.145737 L585.039911,615.879484 Z M460.645219,616.10877 L480.013411,582.565735 L499.375052,582.565735 L499.375052,582.549358 L518.422242,582.549358 L537.765867,616.053087 L518.422242,649.558453 L499.340659,649.558453 L499.340659,649.55354 L499.340659,649.571555 L479.964278,649.571555 L460.645219,616.10877 Z M336.21941,616.442874 L355.700607,582.703308 L394.073407,582.703308 L413.417032,616.207036 L394.073407,649.710765 L355.425463,649.710765 L336.21941,616.442874 Z M211.687146,616.752412 L231.111021,583.111111 L269.603378,583.111111 L288.947003,616.614839 L269.603378,650.118568 L230.955434,650.118568 L211.687146,616.752412 Z M87.2793517,617.057036 L106.760549,583.315831 L145.133349,583.315831 L164.476974,616.81956 L145.133349,650.323289 L106.485405,650.323289 L87.2793517,617.057036 Z M1393.73971,649.864715 L1413.08333,616.359348 L1451.73291,616.359348 L1471.05033,649.823771 L1451.68214,683.370081 L1413.08333,683.370081 L1393.73971,649.864715 Z M1269.26968,650.274156 L1288.61166,616.770427 L1327.26125,616.770427 L1346.4673,650.038318 L1326.98446,683.779522 L1288.61166,683.779522 L1269.26968,650.274156 Z M1144.79965,650.478876 L1164.14327,616.975147 L1202.79285,616.975147 L1222.05787,650.34458 L1202.63399,683.984243 L1164.14327,683.984243 L1144.79965,650.478876 Z M1020.32962,650.888317 L1039.67324,617.384588 L1078.32119,617.384588 L1097.52724,650.654117 L1078.04441,684.393684 L1039.67324,684.393684 L1020.32962,650.888317 Z M896.116718,651.009512 L915.458706,617.505783 L954.105012,617.505783 L973.425708,650.96693 L954.057517,684.51324 L915.460343,684.51324 L896.116718,651.009512 Z M771.643414,651.417315 L790.988677,617.913586 L829.636621,617.913586 L848.842674,651.179839 L829.359839,684.924319 L790.988677,684.924319 L771.643414,651.417315 Z M647.17666,651.622035 L666.518648,618.118306 L705.164954,618.118306 L724.433242,651.486101 L705.012642,685.127402 L666.520285,685.127402 L647.17666,651.622035 Z M522.704993,652.031476 L542.048618,618.527747 L580.696562,618.527747 L599.902615,651.792363 L580.421418,685.536843 L542.048618,685.536843 L522.704993,652.031476 Z M398.354521,652.183788 L417.698146,618.680059 L456.34609,618.680059 L475.663511,652.142844 L456.295319,685.689155 L417.699784,685.689155 L398.354521,652.183788 Z M273.884492,652.593229 L293.226479,619.0895 L331.874423,619.0895 L351.082114,652.357391 L331.600917,686.098595 L293.226479,686.098595 L273.884492,652.593229 Z M149.4161,652.797949 L168.759726,619.294221 L207.406032,619.294221 L226.672682,652.663653 L207.248807,686.303316 L168.759726,686.303316 L149.4161,652.797949 Z M24.9444335,653.20739 L44.2896965,619.703661 L82.9376405,619.703661 L102.143694,652.971552 L82.6624962,686.712757 L44.2896965,686.712757 L24.9444335,653.20739 Z M1331.60296,686.085493 L1351.08415,652.341013 L1389.45695,652.341013 L1408.78093,685.811987 L1389.41437,719.350109 L1350.81065,719.350109 L1331.60296,686.085493 Z M1207.07233,686.393393 L1226.49621,652.748816 L1264.98693,652.748816 L1284.3109,686.221428 L1264.94598,719.757912 L1226.34062,719.757912 L1207.07233,686.393393 Z M1082.6629,686.699655 L1102.14573,652.955175 L1140.5169,652.955175 L1159.83923,686.42451 L1140.47595,719.96427 L1101.87223,719.96427 L1082.6629,686.699655 Z M958.405779,686.891273 L977.773971,653.344962 L996.963646,653.344962 L996.963646,653.364616 L1016.04687,653.364616 L1035.36756,686.833951 L1016.00592,720.373711 L997.135611,720.373711 L997.135611,720.354058 L977.724838,720.354058 L958.405779,686.891273 Z M833.97997,687.223739 L853.459529,653.482534 L891.833967,653.482534 L911.156301,686.946957 L891.791385,720.489992 L853.18766,720.489992 L833.97997,687.223739 Z M709.449343,687.531638 L728.871581,653.891975 L767.3623,653.891975 L786.684634,687.358036 L767.31808,720.899433 L728.715994,720.899433 L709.449343,687.531638 Z M585.039911,687.8379 L604.521109,654.096696 L642.893908,654.096696 L662.216243,687.562756 L642.851327,721.104153 L604.247602,721.104153 L585.039911,687.8379 Z M460.645219,688.068825 L480.013411,654.522514 L499.375052,654.522514 L499.375052,654.506137 L518.422242,654.506137 L537.744576,687.972197 L518.378022,721.513594 L499.340659,721.513594 L499.340659,721.515232 L499.340659,721.53161 L479.964278,721.53161 L460.645219,688.068825 Z M336.21941,688.406204 L355.700607,654.660086 L394.073407,654.660086 L413.395741,688.129422 L394.030825,721.669182 L355.427101,721.669182 L336.21941,688.406204 Z M211.687146,688.712466 L231.111021,655.069527 L269.60174,655.069527 L288.922437,688.538863 L269.559158,722.078623 L230.955434,722.078623 L211.687146,688.712466 Z M87.2809894,689.018728 L106.760549,655.274248 L145.133349,655.274248 L164.454045,688.743584 L145.090767,722.283343 L106.485405,722.283343 L87.2809894,689.018728 Z M1393.66109,721.967255 L1413.02601,688.42422 L1451.6281,688.42422 L1470.94879,721.887004 L1451.57896,755.431677 L1412.98179,755.431677 L1393.66109,721.967255 Z M1269.18779,722.378333 L1288.55434,688.833661 L1327.15807,688.833661 L1346.36248,722.101551 L1326.88292,755.842756 L1288.51012,755.842756 L1269.18779,722.378333 Z M1144.7194,722.581416 L1164.08595,689.038381 L1202.68804,689.038381 L1221.95469,722.407813 L1202.53245,756.045838 L1164.04173,756.045838 L1144.7194,722.581416 Z M1020.24773,722.990857 L1039.61428,689.447822 L1078.21801,689.447822 L1097.42242,722.71735 L1077.94286,756.456917 L1039.57006,756.456917 L1020.24773,722.990857 Z M896.03483,723.102225 L915.399746,689.567379 L954.003471,689.567379 L973.322529,723.028525 L953.954338,756.574836 L915.355527,756.574836 L896.03483,723.102225 Z M771.563163,723.514941 L790.929717,689.975182 L829.533442,689.975182 L848.739495,723.239797 L829.258297,756.984277 L790.885498,756.984277 L771.563163,723.514941 Z M647.09641,723.718024 L666.459688,690.179902 L705.061775,690.179902 L724.330063,723.546059 L704.909463,757.18736 L666.417106,757.18736 L647.09641,723.718024 Z M522.623105,724.129103 L541.989659,690.589343 L580.593383,690.589343 L599.799436,723.853958 L580.318239,757.598438 L541.945439,757.598438 L522.623105,724.129103 Z M398.27427,724.28469 L417.639187,690.743293 L456.242911,690.743293 L475.560332,724.206077 L456.19214,757.75075 L417.596605,757.75075 L398.27427,724.28469 Z M273.802604,724.695769 L293.169157,691.152734 L331.771244,691.152734 L350.978935,724.420624 L331.497738,758.161829 L293.1233,758.161829 L273.802604,724.695769 Z M149.334212,724.900489 L168.699128,691.357454 L207.304491,691.357454 L226.571141,724.726886 L207.147265,758.364912 L168.658184,758.364912 L149.334212,724.900489 Z M24.8658209,725.30993 L44.2290992,691.766895 L82.8328237,691.766895 L102.038877,725.034786 L82.5576794,758.77599 L44.1832418,758.77599 L24.8658209,725.30993 Z M1331.50142,758.147089 L1350.98261,724.400971 L1389.35541,724.400971 L1408.64663,757.819536 L1389.25223,791.408429 L1350.70747,791.408429 L1331.50142,758.147089 Z M1206.97079,758.454989 L1226.39139,724.813688 L1264.88211,724.813688 L1284.17332,758.230615 L1264.78057,791.821145 L1226.2358,791.821145 L1206.97079,758.454989 Z M1082.56136,758.76125 L1102.04255,725.01677 L1140.41372,725.01677 L1159.70657,758.433698 L1140.31054,792.024228 L1101.76577,792.024228 L1082.56136,758.76125 Z M958.304238,758.952869 L977.670792,725.408196 L996.962008,725.408196 L996.962008,725.427849 L1015.94205,725.427849 L1035.23327,758.844776 L1015.84051,792.435307 L997.132336,792.435307 L997.132336,792.415653 L977.621659,792.415653 L958.304238,758.952869 Z M833.87679,759.285335 L853.359626,725.54413 L891.732425,725.54413 L911.023642,758.957782 L891.629246,792.551588 L853.082844,792.551588 L833.87679,759.285335 Z M709.347802,759.593234 L728.77004,725.955209 L767.259121,725.955209 L786.551975,759.368861 L767.157579,792.962666 L728.612814,792.962666 L709.347802,759.593234 Z M584.93837,759.897858 L604.419567,726.158292 L642.792367,726.158292 L662.083584,759.571943 L642.689188,793.165749 L604.142785,793.165749 L584.93837,759.897858 Z M460.54204,760.130421 L479.910232,726.585748 L499.373414,726.585748 L499.373414,726.56937 L518.317425,726.56937 L537.610279,759.983022 L518.214246,793.576828 L499.340659,793.576828 L499.340659,793.593205 L479.861099,793.593205 L460.54204,760.130421 Z M336.117869,760.4678 L355.599066,726.721682 L393.971866,726.721682 L413.263082,760.13861 L393.868687,793.72914 L355.323922,793.72914 L336.117869,760.4678 Z M211.585604,760.774062 L231.00948,727.132761 L269.500199,727.132761 L288.789778,760.549688 L269.39702,794.140218 L230.852255,794.140218 L211.585604,760.774062 Z M87.1761726,761.080324 L106.65737,727.337481 L145.03017,727.337481 L164.321386,760.754409 L144.926991,794.344939 L106.382226,794.344939 L87.1761726,761.080324 Z M1393.58576,793.976442 L1412.98179,760.382636 L1451.52655,760.382636 L1470.84561,793.845421 L1451.47742,827.388456 L1412.87861,827.388456 L1393.58576,793.976442 Z M1269.11409,794.387521 L1288.51012,760.792077 L1327.05325,760.792077 L1346.26094,794.059968 L1326.77811,827.801172 L1288.40531,827.801172 L1269.11409,794.387521 Z M1144.6457,794.590603 L1164.04173,760.998435 L1202.58486,760.998435 L1221.85151,794.367868 L1202.42763,828.005893 L1163.93855,828.005893 L1144.6457,794.590603 Z M1020.17403,795.00332 L1039.57006,761.407876 L1078.11319,761.407876 L1097.32088,794.674129 L1077.83969,828.416972 L1039.46689,828.416972 L1020.17403,795.00332 Z M895.964406,795.117963 L915.355527,761.525795 L953.900292,761.525795 L973.21935,794.990218 L953.851159,828.533253 L915.255623,828.533253 L895.964406,795.117963 Z M771.491102,795.529042 L790.887135,761.935236 L829.4319,761.935236 L848.637953,795.199851 L829.155118,828.944331 L790.783956,828.944331 L771.491102,795.529042 Z M647.024348,795.730487 L666.417106,762.139957 L704.961871,762.139957 L724.228521,795.506113 L704.806284,829.147414 L666.315565,829.147414 L647.024348,795.730487 Z M522.551043,796.141565 L541.945439,762.54776 L580.490204,762.54776 L599.697895,795.815651 L580.218335,829.558493 L541.84226,829.558493 L522.551043,796.141565 Z M398.202209,796.295515 L417.596605,762.703347 L456.14137,762.703347 L475.460428,796.164494 L456.090599,829.709167 L417.495063,829.709167 L398.202209,796.295515 Z M273.73218,796.706594 L293.124938,763.11115 L331.671341,763.11115 L350.877394,796.379041 L331.396196,830.121883 L293.021759,830.121883 L273.73218,796.706594 Z M149.263788,796.909677 L168.656546,763.315871 L207.201311,763.315871 L226.467962,796.685303 L207.044086,830.321691 L168.555005,830.321691 L149.263788,796.909677 Z M24.7921215,797.319117 L44.1865174,763.726949 L82.7312823,763.726949 L101.937335,796.993203 L82.456138,830.734407 L44.0833383,830.734407 L24.7921215,797.319117 Z M1331.39824,830.105506 L1350.87943,796.361026 L1389.25223,796.361026 L1408.59422,829.864755 L1389.25223,863.368483 L1350.60429,863.368483 L1350.60429,863.370121 L1331.39824,830.105506 Z M1206.86597,830.413405 L1226.28821,796.772104 L1264.78057,796.772104 L1284.12419,830.275833 L1264.78057,863.779562 L1226.13426,863.779562 L1206.86597,830.413405 Z M1082.45654,830.718029 L1101.93938,796.976825 L1140.31054,796.976825 L1159.65416,830.480554 L1140.31054,863.984282 L1101.66423,863.984282 L1101.66423,863.98592 L1082.45654,830.718029 Z M958.199421,830.911285 L977.56925,797.366613 L996.963646,797.366613 L996.963646,797.386266 L1015.84215,797.386266 L1035.18577,830.889995 L1015.84215,864.393723 L997.133974,864.393723 L997.133974,864.372432 L977.520117,864.372432 L958.199421,830.911285 Z M833.775249,831.243751 L853.254809,797.504185 L891.629246,797.504185 L910.972871,831.007913 L891.629246,864.511642 L852.981302,864.511642 L833.775249,831.243751 Z M709.244623,831.551651 L728.666861,797.913626 L767.157579,797.913626 L786.501205,831.415717 L767.157579,864.919445 L728.511273,864.919445 L709.244623,831.551651 Z M584.835191,831.857913 L604.316388,798.116708 L642.689188,798.116708 L662.031175,831.620437 L642.689188,865.124166 L604.041244,865.124166 L584.835191,831.857913 Z M460.440499,832.088837 L479.808691,798.544165 L499.373414,798.544165 L499.373414,798.527787 L518.215883,798.527787 L537.561146,832.031516 L518.215883,865.533607 L499.340659,865.533607 L499.340659,865.551622 L479.75792,865.551622 L460.440499,832.088837 Z M336.014689,832.424579 L355.495887,798.680099 L393.868687,798.680099 L413.212312,832.183828 L393.868687,865.687556 L355.220742,865.687556 L355.220742,865.689194 L336.014689,832.424579 Z M211.482425,832.732479 L230.904663,799.091178 L269.39702,799.091178 L288.740645,832.594906 L269.39702,866.098635 L230.750713,866.098635 L211.482425,832.732479 Z M87.0729935,833.03874 L106.555829,799.29426 L144.928628,799.29426 L164.272253,832.797989 L144.928628,866.301718 L106.279047,866.301718 L106.279047,866.303356 L87.0729935,833.03874 Z M1393.53499,865.84642 L1412.87861,832.342691 L1451.52819,832.342691 L1470.84561,865.807113 L1451.47742,899.350148 L1412.87861,899.350148 L1393.53499,865.84642 Z M1269.06496,866.25586 L1288.40858,832.752132 L1327.05653,832.752132 L1346.26258,866.02166 L1326.77974,899.759589 L1288.40858,899.759589 L1269.06496,866.25586 Z M1144.59493,866.460581 L1163.93855,832.956852 L1202.5865,832.956852 L1221.85315,866.326284 L1202.42763,899.96431 L1163.93855,899.96431 L1144.59493,866.460581 Z M1020.1249,866.870022 L1039.46852,833.366293 L1078.11647,833.366293 L1097.32252,866.635822 L1077.84132,900.373751 L1039.46852,900.373751 L1020.1249,866.870022 Z M895.91036,866.987941 L915.255623,833.484212 L953.901929,833.484212 L973.220988,866.946997 L953.851159,900.491669 L915.255623,900.491669 L895.91036,866.987941 Z M771.438693,867.397382 L790.783956,833.893653 L829.4319,833.893653 L848.637953,867.15663 L829.155118,900.90111 L790.783956,900.90111 L771.438693,867.397382 Z M646.970302,867.602102 L666.313927,834.098373 L704.961871,834.098373 L724.228521,867.46453 L704.806284,901.105831 L666.313927,901.105831 L646.970302,867.602102 Z M522.500273,868.011543 L541.84226,834.507814 L580.490204,834.507814 L599.697895,867.772429 L580.218335,901.515272 L541.84226,901.515272 L522.500273,868.011543 Z M398.151438,868.165493 L417.495063,834.661764 L456.143007,834.661764 L475.462066,868.124549 L456.090599,901.669221 L417.495063,901.669221 L398.151438,868.165493 Z M273.679771,868.574934 L293.021759,835.071205 L331.671341,835.071205 L350.877394,868.339096 L331.396196,902.078662 L293.021759,902.078662 L273.679771,868.574934 Z M149.209742,868.779654 L168.553367,835.275925 L207.201311,835.275925 L226.467962,868.645357 L207.042448,902.283383 L168.553367,902.283383 L149.209742,868.779654 Z M24.7397131,869.189095 L44.0833383,835.685366 L82.7312823,835.685366 L101.937335,868.953257 L82.456138,902.694461 L44.0833383,902.694461 L24.7397131,869.189095 Z M499.64692,366.721603 L499.64692,366.719965 L499.64692,366.721603 Z" transform="rotate(.1 748.306 453.104)"/>
</svg>
